<svg id="svg" version="1.1" xmlns="http://www.w3.org/2000/svg" xmlns:xlink="http://www.w3.org/1999/xlink" width="400" height="400" viewBox="0, 0, 400,400"><g id="svgg"><path id="path0" d="M188.400 17.027 C 178.808 17.633,166.726 19.472,157.200 21.778 C 107.075 33.911,64.109 66.810,39.239 112.099 C 37.718 114.871,32.800 124.709,32.800 124.982 C 32.800 125.089,32.366 126.127,31.835 127.288 C 27.128 137.593,22.633 152.140,20.182 165.000 C 17.387 179.665,17.303 181.782,19.500 182.138 C 20.325 182.271,21.900 182.575,23.000 182.812 C 27.217 183.722,38.370 185.578,44.600 186.406 C 46.360 186.640,49.060 187.003,50.600 187.212 C 64.140 189.050,83.121 190.506,103.241 191.249 C 118.145 191.800,117.463 191.890,117.786 189.323 C 120.812 165.276,134.935 142.971,155.600 129.604 C 162.638 125.052,175.101 119.977,183.000 118.448 C 184.100 118.235,186.170 117.822,187.600 117.530 C 191.157 116.805,208.825 116.802,212.400 117.527 C 229.679 121.029,240.167 125.705,252.200 135.275 C 267.958 147.808,279.636 168.837,282.214 189.323 C 282.353 190.424,282.697 191.339,283.020 191.463 C 284.170 191.904,314.244 190.597,326.200 189.586 C 339.784 188.437,357.973 186.230,365.600 184.805 C 366.590 184.620,368.750 184.245,370.400 183.971 C 372.050 183.698,375.290 183.090,377.600 182.621 L 381.800 181.767 381.936 180.384 C 382.234 177.357,379.441 162.021,376.804 152.200 C 375.382 146.906,375.330 146.731,374.079 143.000 C 359.419 99.295,330.356 63.618,291.000 41.011 C 284.674 37.377,272.333 31.200,271.400 31.200 C 271.303 31.200,270.273 30.766,269.112 30.236 C 263.259 27.566,248.264 22.829,240.600 21.229 C 232.494 19.536,229.500 18.999,224.800 18.393 C 222.930 18.151,220.140 17.771,218.600 17.547 C 215.864 17.149,192.764 16.752,188.400 17.027 " stroke="none" fill="#e7504d" fill-rule="evenodd"></path><path id="path1" d="M178.300 0.274 C 176.375 0.360,174.800 0.604,174.800 0.816 C 174.800 1.027,173.551 1.200,172.024 1.200 C 170.497 1.200,169.136 1.380,169.000 1.600 C 168.864 1.820,167.874 2.000,166.800 2.000 C 165.726 2.000,164.736 2.180,164.600 2.400 C 164.464 2.620,163.363 2.800,162.153 2.800 C 160.788 2.800,160.047 2.952,160.200 3.200 C 160.351 3.444,159.737 3.600,158.624 3.600 C 157.621 3.600,156.800 3.780,156.800 4.000 C 156.800 4.220,156.001 4.400,155.024 4.400 C 154.047 4.400,153.136 4.580,153.000 4.800 C 152.864 5.020,152.043 5.200,151.176 5.200 C 150.309 5.200,149.600 5.360,149.600 5.556 C 149.600 5.752,148.970 6.022,148.200 6.156 C 147.430 6.290,146.170 6.510,145.400 6.644 C 144.630 6.778,144.000 7.048,144.000 7.244 C 144.000 7.440,143.550 7.600,143.000 7.600 C 142.450 7.600,142.000 7.780,142.000 8.000 C 142.000 8.220,141.291 8.400,140.424 8.400 C 139.557 8.400,138.734 8.583,138.596 8.807 C 138.458 9.030,138.169 9.105,137.955 8.972 C 137.740 8.840,137.330 8.926,137.042 9.165 C 136.754 9.404,136.042 9.639,135.460 9.687 C 134.877 9.735,134.400 9.915,134.400 10.087 C 134.400 10.259,133.950 10.400,133.400 10.400 C 132.850 10.400,132.400 10.580,132.400 10.800 C 132.400 11.020,131.860 11.200,131.200 11.200 C 130.540 11.200,130.000 11.347,130.000 11.528 C 130.000 11.708,129.100 12.100,128.000 12.400 C 126.900 12.700,126.000 13.092,126.000 13.272 C 126.000 13.453,125.651 13.600,125.224 13.600 C 124.797 13.600,124.358 13.744,124.249 13.921 C 124.140 14.097,123.139 14.490,122.025 14.793 C 120.911 15.096,120.000 15.492,120.000 15.672 C 120.000 15.853,119.640 16.000,119.200 16.000 C 118.760 16.000,118.400 16.180,118.400 16.400 C 118.400 16.620,118.040 16.800,117.600 16.800 C 117.160 16.800,116.800 16.980,116.800 17.200 C 116.800 17.420,116.528 17.600,116.195 17.600 C 115.862 17.600,115.277 17.765,114.895 17.966 C 114.513 18.168,113.570 18.620,112.800 18.970 C 112.030 19.321,110.500 20.154,109.400 20.822 C 108.300 21.489,107.085 22.138,106.700 22.264 C 106.315 22.390,106.000 22.652,106.000 22.847 C 106.000 23.041,105.640 23.200,105.200 23.200 C 104.760 23.200,104.400 23.380,104.400 23.600 C 104.400 23.820,104.040 24.000,103.600 24.000 C 103.160 24.000,102.800 24.180,102.800 24.400 C 102.800 24.620,102.464 24.800,102.054 24.800 C 101.644 24.800,100.858 25.154,100.308 25.587 C 99.757 26.020,99.193 26.260,99.054 26.120 C 98.914 25.981,98.800 26.065,98.800 26.307 C 98.800 26.550,98.170 26.976,97.400 27.254 C 96.630 27.533,96.000 27.905,96.000 28.080 C 96.000 28.256,95.730 28.400,95.400 28.400 C 95.070 28.400,94.800 28.580,94.800 28.800 C 94.800 29.020,94.558 29.200,94.262 29.200 C 93.966 29.200,93.398 29.560,93.000 30.000 C 92.602 30.440,92.049 30.800,91.771 30.800 C 91.494 30.800,91.207 30.966,91.133 31.170 C 91.060 31.373,90.730 31.598,90.400 31.670 C 90.070 31.741,89.509 32.115,89.153 32.500 C 88.797 32.885,88.301 33.200,88.049 33.200 C 87.798 33.200,87.028 33.740,86.337 34.400 C 85.646 35.060,84.878 35.600,84.629 35.600 C 84.380 35.600,83.917 35.960,83.600 36.400 C 83.283 36.840,82.775 37.200,82.472 37.200 C 82.169 37.200,81.417 37.740,80.800 38.400 C 80.183 39.060,79.381 39.600,79.016 39.600 C 78.651 39.600,78.464 39.780,78.600 40.000 C 78.736 40.220,78.702 40.400,78.524 40.400 C 78.346 40.401,77.677 40.851,77.038 41.400 C 76.399 41.950,75.769 42.401,75.638 42.402 C 75.507 42.403,74.825 42.943,74.122 43.602 C 73.419 44.261,72.682 44.800,72.484 44.800 C 72.287 44.800,71.058 45.835,69.753 47.100 C 68.449 48.365,66.891 49.655,66.291 49.967 C 65.692 50.279,65.269 50.602,65.352 50.686 C 65.435 50.769,64.008 52.268,62.181 54.018 C 60.354 55.768,58.942 57.200,59.043 57.200 C 59.145 57.200,58.817 57.626,58.314 58.146 C 57.811 58.667,57.355 59.057,57.300 59.013 C 57.122 58.871,49.813 66.360,49.649 66.852 C 49.562 67.114,48.570 68.271,47.445 69.423 C 46.320 70.576,44.680 72.539,43.800 73.785 C 42.920 75.032,41.795 76.536,41.300 77.126 C 40.806 77.717,40.401 78.346,40.400 78.524 C 40.400 78.702,40.220 78.736,40.000 78.600 C 39.780 78.464,39.600 78.651,39.600 79.016 C 39.600 79.381,39.060 80.183,38.400 80.800 C 37.740 81.417,37.200 82.169,37.200 82.472 C 37.200 82.775,36.840 83.283,36.400 83.600 C 35.960 83.917,35.600 84.380,35.600 84.629 C 35.600 84.878,35.060 85.646,34.400 86.337 C 33.740 87.028,33.200 87.798,33.200 88.049 C 33.200 88.301,32.885 88.797,32.500 89.153 C 32.115 89.509,31.742 90.070,31.670 90.400 C 31.599 90.730,31.374 91.060,31.170 91.133 C 30.967 91.207,30.800 91.494,30.800 91.771 C 30.800 92.049,30.440 92.602,30.000 93.000 C 29.560 93.398,29.200 93.966,29.200 94.262 C 29.200 94.558,29.020 94.800,28.800 94.800 C 28.580 94.800,28.400 95.070,28.400 95.400 C 28.400 95.730,28.220 96.000,28.000 96.000 C 27.780 96.000,27.600 96.270,27.600 96.600 C 27.600 96.930,27.409 97.200,27.176 97.200 C 26.943 97.200,26.855 97.365,26.980 97.568 C 27.105 97.770,26.971 98.175,26.681 98.468 C 26.089 99.067,25.440 100.445,25.536 100.900 C 25.571 101.065,25.420 101.200,25.200 101.200 C 24.980 101.200,24.800 101.560,24.800 102.000 C 24.800 102.440,24.620 102.800,24.400 102.800 C 24.180 102.800,24.000 103.160,24.000 103.600 C 24.000 104.040,23.820 104.400,23.600 104.400 C 23.380 104.400,23.200 104.760,23.200 105.200 C 23.200 105.640,23.054 106.000,22.875 106.000 C 22.696 106.000,22.305 106.622,22.007 107.382 C 21.709 108.142,21.311 108.669,21.123 108.552 C 20.934 108.436,20.806 108.489,20.837 108.670 C 20.987 109.529,20.740 110.316,20.100 111.025 C 19.715 111.451,19.154 112.340,18.853 113.000 C 18.553 113.660,18.148 114.513,17.953 114.895 C 17.759 115.277,17.600 115.862,17.600 116.195 C 17.600 116.528,17.420 116.800,17.200 116.800 C 16.980 116.800,16.800 117.160,16.800 117.600 C 16.800 118.040,16.620 118.400,16.400 118.400 C 16.180 118.400,16.000 118.760,16.000 119.200 C 16.000 119.640,15.853 120.000,15.672 120.000 C 15.492 120.000,15.100 120.900,14.800 122.000 C 14.500 123.100,14.108 124.000,13.928 124.000 C 13.747 124.000,13.600 124.450,13.600 125.000 C 13.600 125.550,13.420 126.000,13.200 126.000 C 12.980 126.000,12.800 126.439,12.800 126.976 C 12.800 127.513,12.620 128.064,12.400 128.200 C 12.180 128.336,12.000 128.797,12.000 129.224 C 12.000 129.651,11.849 130.000,11.664 130.000 C 11.479 130.000,11.090 130.990,10.800 132.200 C 10.510 133.410,10.091 134.400,9.869 134.400 C 9.648 134.400,9.575 134.509,9.708 134.641 C 9.840 134.774,9.764 135.359,9.539 135.941 C 8.931 137.511,8.718 138.414,8.508 140.300 C 8.404 141.235,8.158 142.000,7.960 142.000 C 7.762 142.000,7.600 142.362,7.600 142.805 C 7.600 143.248,7.442 143.923,7.249 144.305 C 6.660 145.472,6.000 147.808,6.000 148.728 C 6.000 149.208,5.820 149.600,5.600 149.600 C 5.380 149.600,5.200 150.309,5.200 151.176 C 5.200 152.043,5.020 152.864,4.800 153.000 C 4.580 153.136,4.400 153.946,4.400 154.800 C 4.400 155.654,4.220 156.464,4.000 156.600 C 3.780 156.736,3.600 157.557,3.600 158.424 C 3.600 159.291,3.420 160.000,3.200 160.000 C 2.980 160.000,2.800 160.889,2.800 161.976 C 2.800 163.063,2.620 164.064,2.400 164.200 C 2.180 164.336,2.000 165.416,2.000 166.600 C 2.000 167.784,1.820 168.864,1.600 169.000 C 1.380 169.136,1.200 170.482,1.200 171.990 C 1.200 173.829,1.035 174.788,0.700 174.900 C -0.032 175.144,-0.032 224.856,0.700 225.100 C 1.035 225.212,1.200 226.171,1.200 228.010 C 1.200 229.518,1.380 230.864,1.600 231.000 C 1.820 231.136,2.000 232.216,2.000 233.400 C 2.000 234.584,2.180 235.664,2.400 235.800 C 2.620 235.936,2.800 236.947,2.800 238.047 C 2.800 239.279,2.954 239.952,3.200 239.800 C 3.444 239.649,3.600 240.255,3.600 241.353 C 3.600 242.343,3.780 243.264,4.000 243.400 C 4.220 243.536,4.400 244.346,4.400 245.200 C 4.400 246.054,4.580 246.864,4.800 247.000 C 5.020 247.136,5.200 247.957,5.200 248.824 C 5.200 249.691,5.360 250.400,5.556 250.400 C 5.752 250.400,6.022 251.030,6.156 251.800 C 6.290 252.570,6.510 253.830,6.644 254.600 C 6.778 255.370,7.048 256.000,7.244 256.000 C 7.440 256.000,7.600 256.450,7.600 257.000 C 7.600 257.550,7.762 258.000,7.960 258.000 C 8.158 258.000,8.404 258.765,8.508 259.700 C 8.731 261.705,8.917 262.458,9.721 264.600 C 10.052 265.480,10.457 266.560,10.622 267.000 C 10.788 267.440,10.996 268.250,11.086 268.800 C 11.176 269.350,11.418 269.860,11.625 269.933 C 11.831 270.007,12.000 270.401,12.000 270.810 C 12.000 271.218,12.180 271.664,12.400 271.800 C 12.620 271.936,12.800 272.487,12.800 273.024 C 12.800 273.561,12.980 274.000,13.200 274.000 C 13.420 274.000,13.600 274.450,13.600 275.000 C 13.600 275.550,13.736 276.000,13.902 276.000 C 14.168 276.000,14.748 277.389,15.238 279.200 C 15.327 279.530,15.490 279.890,15.600 280.000 C 16.078 280.478,16.800 282.039,16.800 282.595 C 16.800 282.928,16.980 283.200,17.200 283.200 C 17.420 283.200,17.600 283.560,17.600 284.000 C 17.600 284.440,17.780 284.800,18.000 284.800 C 18.220 284.800,18.400 285.124,18.400 285.520 C 18.400 286.414,19.294 288.393,19.700 288.397 C 19.865 288.399,20.000 288.745,20.000 289.167 C 20.000 289.588,20.135 289.993,20.300 290.067 C 20.676 290.234,21.975 292.364,22.271 293.300 C 22.393 293.685,22.652 294.000,22.847 294.000 C 23.041 294.000,23.200 294.360,23.200 294.800 C 23.200 295.240,23.380 295.600,23.600 295.600 C 23.820 295.600,24.000 295.960,24.000 296.400 C 24.000 296.840,24.180 297.200,24.400 297.200 C 24.620 297.200,24.800 297.487,24.800 297.838 C 24.800 298.189,25.172 298.999,25.627 299.638 C 26.082 300.277,26.307 300.803,26.127 300.806 C 25.947 300.809,25.982 300.944,26.205 301.106 C 26.428 301.268,27.042 302.255,27.568 303.300 C 28.095 304.345,28.633 305.200,28.764 305.200 C 28.894 305.200,29.431 306.010,29.956 307.000 C 30.481 307.990,31.066 308.800,31.256 308.800 C 31.445 308.800,31.600 309.070,31.600 309.400 C 31.600 309.730,31.780 310.000,32.000 310.000 C 32.220 310.000,32.400 310.270,32.400 310.600 C 32.400 310.930,32.580 311.200,32.800 311.200 C 33.020 311.200,33.200 311.472,33.200 311.804 C 33.200 312.136,33.740 312.972,34.400 313.663 C 35.060 314.354,35.600 315.122,35.600 315.371 C 35.600 315.620,35.960 316.083,36.400 316.400 C 36.840 316.717,37.200 317.307,37.200 317.712 C 37.200 318.116,37.380 318.336,37.600 318.200 C 37.820 318.064,38.000 318.233,38.000 318.576 C 38.000 318.919,38.180 319.200,38.400 319.200 C 38.620 319.200,38.800 319.481,38.800 319.824 C 38.800 320.167,38.980 320.336,39.200 320.200 C 39.420 320.064,39.600 320.334,39.600 320.800 C 39.600 321.266,39.780 321.536,40.000 321.400 C 40.220 321.264,40.400 321.298,40.400 321.476 C 40.401 321.654,40.851 322.323,41.400 322.962 C 41.950 323.601,42.400 324.250,42.400 324.403 C 42.400 324.556,42.940 325.246,43.600 325.937 C 44.260 326.628,44.800 327.374,44.800 327.596 C 44.800 327.818,44.980 328.000,45.200 328.000 C 45.420 328.000,45.600 328.171,45.600 328.381 C 45.600 328.590,46.455 329.625,47.500 330.681 C 48.545 331.736,49.652 333.089,49.960 333.686 C 50.268 334.284,50.673 334.678,50.860 334.563 C 51.047 334.447,51.200 334.509,51.200 334.700 C 51.200 334.892,52.641 336.477,54.403 338.224 C 58.305 342.094,57.906 341.695,61.776 345.597 C 63.523 347.359,65.108 348.800,65.300 348.800 C 65.491 348.800,65.553 348.953,65.437 349.140 C 65.322 349.327,65.716 349.732,66.314 350.040 C 66.911 350.348,68.244 351.436,69.276 352.457 C 70.308 353.479,71.249 354.218,71.367 354.100 C 71.485 353.982,71.695 354.181,71.833 354.543 C 71.972 354.904,72.246 355.200,72.442 355.200 C 72.638 355.200,73.466 355.830,74.282 356.600 C 75.099 357.370,75.999 358.000,76.283 358.000 C 76.568 358.000,76.800 358.150,76.800 358.332 C 76.800 358.515,77.244 358.902,77.786 359.193 C 78.329 359.483,78.678 359.873,78.563 360.060 C 78.447 360.247,78.734 360.400,79.200 360.400 C 79.666 360.400,79.936 360.580,79.800 360.800 C 79.664 361.020,79.833 361.200,80.176 361.200 C 80.519 361.200,80.800 361.380,80.800 361.600 C 80.800 361.820,81.081 362.000,81.424 362.000 C 81.767 362.000,81.936 362.180,81.800 362.400 C 81.664 362.620,81.923 362.800,82.376 362.800 C 82.829 362.800,83.200 362.941,83.200 363.114 C 83.200 363.286,83.745 363.749,84.411 364.143 C 85.077 364.536,86.030 365.250,86.529 365.729 C 87.028 366.208,87.665 366.649,87.944 366.709 C 88.224 366.768,88.834 367.173,89.301 367.609 C 89.769 368.044,90.387 368.400,90.675 368.400 C 90.964 368.400,91.200 368.580,91.200 368.800 C 91.200 369.020,91.571 369.200,92.024 369.200 C 92.477 369.200,92.749 369.359,92.629 369.554 C 92.509 369.748,92.948 370.130,93.605 370.402 C 94.262 370.674,94.800 371.027,94.800 371.186 C 94.800 371.344,95.655 371.905,96.700 372.432 C 97.745 372.958,98.732 373.572,98.894 373.795 C 99.086 374.060,99.192 374.062,99.200 373.800 C 99.208 373.533,99.310 373.533,99.506 373.800 C 99.938 374.388,101.497 375.200,102.195 375.200 C 102.528 375.200,102.800 375.380,102.800 375.600 C 102.800 375.820,103.160 376.000,103.600 376.000 C 104.040 376.000,104.400 376.180,104.400 376.400 C 104.400 376.620,104.636 376.800,104.925 376.800 C 105.213 376.800,105.836 377.160,106.308 377.600 C 106.780 378.040,107.444 378.400,107.783 378.400 C 108.122 378.400,108.400 378.580,108.400 378.800 C 108.400 379.020,108.760 379.200,109.200 379.200 C 109.640 379.200,110.000 379.336,110.000 379.502 C 110.000 379.669,110.585 380.040,111.300 380.329 C 112.015 380.617,112.913 381.021,113.295 381.226 C 113.677 381.432,114.262 381.600,114.595 381.600 C 114.928 381.600,115.200 381.780,115.200 382.000 C 115.200 382.220,115.560 382.400,116.000 382.400 C 116.440 382.400,116.800 382.580,116.800 382.800 C 116.800 383.020,117.072 383.200,117.405 383.200 C 117.963 383.200,119.528 383.925,120.000 384.402 C 120.110 384.513,120.920 384.841,121.800 385.129 C 123.274 385.613,126.016 386.783,127.695 387.644 C 128.077 387.840,128.752 388.000,129.195 388.000 C 129.638 388.000,130.000 388.180,130.000 388.400 C 130.000 388.620,130.414 388.800,130.920 388.800 C 131.426 388.800,132.011 388.949,132.220 389.130 C 132.429 389.312,133.410 389.693,134.400 389.978 C 135.390 390.262,136.470 390.598,136.800 390.724 C 137.130 390.851,137.580 390.981,137.800 391.014 C 138.907 391.178,140.677 391.690,141.295 392.024 C 141.677 392.231,142.542 392.400,143.218 392.400 C 143.936 392.400,144.344 392.566,144.200 392.800 C 144.050 393.042,144.604 393.200,145.600 393.200 C 146.596 393.200,147.150 393.358,147.000 393.600 C 146.850 393.842,147.404 394.000,148.400 394.000 C 149.396 394.000,149.950 394.158,149.800 394.400 C 149.649 394.645,150.270 394.800,151.400 394.800 C 152.530 394.800,153.151 394.955,153.000 395.200 C 152.848 395.447,153.529 395.600,154.776 395.600 C 155.889 395.600,156.800 395.780,156.800 396.000 C 156.800 396.220,157.520 396.400,158.400 396.400 C 159.280 396.400,160.000 396.548,160.000 396.729 C 160.000 396.909,160.945 397.099,162.100 397.151 C 163.255 397.202,164.260 397.414,164.333 397.622 C 164.407 397.830,165.532 398.000,166.833 398.000 C 168.144 398.000,169.200 398.178,169.200 398.400 C 169.200 398.627,170.373 398.800,171.920 398.800 C 173.563 398.800,174.838 398.998,175.140 399.300 C 175.871 400.031,224.857 400.031,225.100 399.300 C 225.212 398.964,226.176 398.800,228.033 398.800 C 229.611 398.800,230.800 398.628,230.800 398.400 C 230.800 398.178,231.859 398.000,233.176 398.000 C 234.483 398.000,235.664 397.820,235.800 397.600 C 235.936 397.380,236.937 397.200,238.024 397.200 C 239.111 397.200,240.000 397.020,240.000 396.800 C 240.000 396.580,240.720 396.400,241.600 396.400 C 242.480 396.400,243.200 396.220,243.200 396.000 C 243.200 395.780,244.100 395.600,245.200 395.600 C 246.300 395.600,247.200 395.420,247.200 395.200 C 247.200 394.980,247.920 394.800,248.800 394.800 C 249.680 394.800,250.400 394.620,250.400 394.400 C 250.400 394.180,251.041 394.000,251.824 394.000 C 252.671 394.000,253.147 393.838,253.000 393.600 C 252.851 393.359,253.385 393.200,254.343 393.200 C 255.218 393.200,255.993 393.026,256.067 392.813 C 256.140 392.600,256.785 392.381,257.500 392.328 C 258.215 392.274,258.800 392.088,258.800 391.915 C 258.800 391.742,259.241 391.600,259.780 391.600 C 260.960 391.600,269.744 388.755,269.933 388.312 C 270.007 388.140,270.414 388.000,270.839 388.000 C 271.585 388.000,271.976 387.855,273.895 386.862 C 274.387 386.608,275.062 386.400,275.395 386.400 C 275.728 386.400,276.000 386.220,276.000 386.000 C 276.000 385.780,276.439 385.600,276.976 385.600 C 277.513 385.600,278.064 385.420,278.200 385.200 C 278.336 384.980,278.797 384.800,279.224 384.800 C 279.651 384.800,280.000 384.620,280.000 384.400 C 280.000 384.180,280.360 384.000,280.800 384.000 C 281.240 384.000,281.600 383.820,281.600 383.600 C 281.600 383.380,281.960 383.200,282.400 383.200 C 282.840 383.200,283.200 383.020,283.200 382.800 C 283.200 382.580,283.560 382.400,284.000 382.400 C 284.440 382.400,284.800 382.220,284.800 382.000 C 284.800 381.780,285.261 381.600,285.824 381.600 C 286.404 381.600,286.740 381.427,286.600 381.200 C 286.460 380.973,286.796 380.800,287.376 380.800 C 287.939 380.800,288.400 380.620,288.400 380.400 C 288.400 380.180,288.760 380.000,289.200 380.000 C 289.640 380.000,290.000 379.820,290.000 379.600 C 290.000 379.380,290.360 379.200,290.800 379.200 C 291.240 379.200,291.600 379.020,291.600 378.800 C 291.600 378.580,291.878 378.400,292.217 378.400 C 292.556 378.400,293.220 378.040,293.692 377.600 C 294.164 377.160,294.787 376.800,295.075 376.800 C 295.364 376.800,295.600 376.620,295.600 376.400 C 295.600 376.180,295.960 376.000,296.400 376.000 C 296.840 376.000,297.200 375.820,297.200 375.600 C 297.200 375.380,297.442 375.200,297.739 375.200 C 298.299 375.200,300.851 374.040,301.200 373.626 C 301.310 373.496,302.255 372.958,303.300 372.432 C 304.345 371.905,305.200 371.366,305.200 371.235 C 305.200 371.103,305.706 370.771,306.325 370.497 C 306.944 370.224,307.836 369.640,308.308 369.200 C 308.780 368.760,309.404 368.400,309.695 368.400 C 309.986 368.400,310.483 368.040,310.800 367.600 C 311.117 367.160,311.609 366.800,311.892 366.800 C 312.175 366.800,312.972 366.260,313.663 365.600 C 314.354 364.940,315.122 364.400,315.371 364.400 C 315.620 364.400,316.083 364.040,316.400 363.600 C 316.717 363.160,317.257 362.800,317.600 362.800 C 317.943 362.800,318.483 362.440,318.800 362.000 C 319.117 361.560,319.607 361.200,319.888 361.200 C 320.170 361.200,320.400 361.020,320.400 360.800 C 320.400 360.580,320.598 360.400,320.840 360.400 C 321.081 360.400,321.783 359.860,322.400 359.200 C 323.017 358.540,323.681 358.000,323.877 358.000 C 324.073 358.000,324.901 357.370,325.718 356.600 C 326.534 355.830,327.366 355.200,327.566 355.200 C 327.766 355.200,329.027 354.120,330.368 352.800 C 331.708 351.480,332.974 350.400,333.180 350.400 C 333.386 350.400,335.320 348.610,337.478 346.421 C 342.241 341.590,341.590 342.241,346.421 337.478 C 348.610 335.320,350.400 333.386,350.400 333.180 C 350.400 332.974,351.480 331.708,352.800 330.368 C 354.120 329.027,355.200 327.766,355.200 327.566 C 355.200 327.366,355.830 326.534,356.600 325.718 C 357.370 324.901,358.000 324.073,358.000 323.877 C 358.000 323.681,358.540 323.017,359.200 322.400 C 359.860 321.783,360.400 321.081,360.400 320.840 C 360.400 320.598,360.580 320.400,360.800 320.400 C 361.020 320.400,361.200 320.170,361.200 319.888 C 361.200 319.607,361.560 319.117,362.000 318.800 C 362.440 318.483,362.800 317.943,362.800 317.600 C 362.800 317.257,363.160 316.717,363.600 316.400 C 364.040 316.083,364.400 315.620,364.400 315.371 C 364.400 315.122,364.940 314.354,365.600 313.663 C 366.260 312.972,366.800 312.218,366.800 311.987 C 366.800 311.756,367.160 311.180,367.600 310.708 C 368.040 310.236,368.400 309.613,368.400 309.325 C 368.400 309.036,368.580 308.800,368.800 308.800 C 369.020 308.800,369.200 308.612,369.200 308.383 C 369.200 308.154,369.560 307.580,370.000 307.108 C 370.440 306.636,370.800 306.013,370.800 305.725 C 370.800 305.436,370.952 305.200,371.137 305.200 C 371.323 305.200,371.905 304.345,372.432 303.300 C 372.958 302.255,373.496 301.310,373.626 301.200 C 374.040 300.851,375.200 298.299,375.200 297.739 C 375.200 297.442,375.380 297.200,375.600 297.200 C 375.820 297.200,376.000 296.840,376.000 296.400 C 376.000 295.960,376.180 295.600,376.400 295.600 C 376.620 295.600,376.800 295.364,376.800 295.075 C 376.800 294.787,377.160 294.164,377.600 293.692 C 378.040 293.220,378.400 292.556,378.400 292.217 C 378.400 291.878,378.580 291.600,378.800 291.600 C 379.020 291.600,379.200 291.240,379.200 290.800 C 379.200 290.360,379.380 290.000,379.600 290.000 C 379.820 290.000,380.000 289.640,380.000 289.200 C 380.000 288.760,380.180 288.400,380.400 288.400 C 380.620 288.400,380.800 287.939,380.800 287.376 C 380.800 286.796,380.973 286.460,381.200 286.600 C 381.427 286.740,381.600 286.404,381.600 285.824 C 381.600 285.261,381.780 284.800,382.000 284.800 C 382.220 284.800,382.400 284.440,382.400 284.000 C 382.400 283.560,382.580 283.200,382.800 283.200 C 383.020 283.200,383.200 282.840,383.200 282.400 C 383.200 281.960,383.380 281.600,383.600 281.600 C 383.820 281.600,384.000 281.240,384.000 280.800 C 384.000 280.360,384.147 280.000,384.328 280.000 C 384.508 280.000,384.900 279.100,385.200 278.000 C 385.500 276.900,385.892 276.000,386.072 276.000 C 386.253 276.000,386.400 275.728,386.400 275.395 C 386.400 275.062,386.580 274.432,386.800 273.995 C 387.020 273.558,387.380 272.842,387.600 272.405 C 387.820 271.968,388.000 271.263,388.000 270.839 C 388.000 270.414,388.140 270.007,388.312 269.933 C 388.750 269.746,391.600 260.967,391.600 259.804 C 391.600 259.278,391.780 258.736,392.000 258.600 C 392.220 258.464,392.400 257.823,392.400 257.176 C 392.400 256.529,392.580 256.000,392.800 256.000 C 393.020 256.000,393.200 255.269,393.200 254.376 C 393.200 253.396,393.358 252.851,393.600 253.000 C 393.838 253.147,394.000 252.671,394.000 251.824 C 394.000 251.041,394.180 250.400,394.400 250.400 C 394.620 250.400,394.800 249.680,394.800 248.800 C 394.800 247.920,394.980 247.200,395.200 247.200 C 395.420 247.200,395.600 246.300,395.600 245.200 C 395.600 244.100,395.780 243.200,396.000 243.200 C 396.220 243.200,396.400 242.480,396.400 241.600 C 396.400 240.720,396.580 240.000,396.800 240.000 C 397.020 240.000,397.200 239.010,397.200 237.800 C 397.200 236.590,397.380 235.600,397.600 235.600 C 397.820 235.600,398.000 234.621,398.000 233.424 C 398.000 232.227,398.180 231.136,398.400 231.000 C 398.620 230.864,398.800 229.518,398.800 228.010 C 398.800 226.171,398.965 225.212,399.300 225.100 C 399.693 224.969,399.800 219.591,399.800 200.000 C 399.800 180.409,399.693 175.031,399.300 174.900 C 398.965 174.788,398.800 173.829,398.800 171.990 C 398.800 170.482,398.620 169.136,398.400 169.000 C 398.180 168.864,398.000 167.784,398.000 166.600 C 398.000 165.416,397.820 164.336,397.600 164.200 C 397.380 164.064,397.200 163.063,397.200 161.976 C 397.200 160.889,397.020 160.000,396.800 160.000 C 396.580 160.000,396.400 159.280,396.400 158.400 C 396.400 157.520,396.220 156.800,396.000 156.800 C 395.780 156.800,395.600 155.889,395.600 154.776 C 395.600 153.529,395.447 152.848,395.200 153.000 C 394.956 153.151,394.800 152.537,394.800 151.424 C 394.800 150.421,394.620 149.600,394.400 149.600 C 394.180 149.600,394.000 148.959,394.000 148.176 C 394.000 147.329,393.838 146.853,393.600 147.000 C 393.358 147.150,393.200 146.596,393.200 145.600 C 393.200 144.604,393.042 144.050,392.800 144.200 C 392.465 144.407,392.172 142.642,392.353 141.500 C 392.379 141.335,392.220 141.200,392.000 141.200 C 391.780 141.200,391.600 140.759,391.600 140.220 C 391.600 139.040,388.755 130.256,388.312 130.067 C 388.140 129.993,388.000 129.586,388.000 129.161 C 388.000 128.737,387.820 128.032,387.600 127.595 C 387.380 127.158,387.020 126.442,386.800 126.005 C 386.580 125.568,386.400 124.938,386.400 124.605 C 386.400 124.272,386.253 124.000,386.072 124.000 C 385.892 124.000,385.500 123.100,385.200 122.000 C 384.900 120.900,384.508 120.000,384.328 120.000 C 384.147 120.000,384.000 119.640,384.000 119.200 C 384.000 118.760,383.820 118.400,383.600 118.400 C 383.380 118.400,383.200 118.040,383.200 117.600 C 383.200 117.160,383.020 116.800,382.800 116.800 C 382.580 116.800,382.400 116.451,382.400 116.024 C 382.400 115.597,382.220 115.136,382.000 115.000 C 381.780 114.864,381.600 114.393,381.600 113.953 C 381.600 113.513,381.420 113.264,381.200 113.400 C 380.973 113.540,380.800 113.204,380.800 112.624 C 380.800 112.061,380.620 111.600,380.400 111.600 C 380.180 111.600,380.000 111.240,380.000 110.800 C 380.000 110.360,379.820 110.000,379.600 110.000 C 379.380 110.000,379.200 109.640,379.200 109.200 C 379.200 108.760,379.020 108.400,378.800 108.400 C 378.580 108.400,378.400 108.040,378.400 107.600 C 378.400 107.160,378.220 106.800,378.000 106.800 C 377.780 106.800,377.600 106.564,377.600 106.275 C 377.600 105.987,377.240 105.364,376.800 104.892 C 376.360 104.420,376.000 103.756,376.000 103.417 C 376.000 103.078,375.820 102.800,375.600 102.800 C 375.380 102.800,375.200 102.528,375.200 102.195 C 375.200 101.497,374.388 99.938,373.800 99.506 C 373.533 99.310,373.533 99.208,373.800 99.200 C 374.062 99.192,374.060 99.086,373.795 98.894 C 373.572 98.732,372.958 97.745,372.432 96.700 C 371.905 95.655,371.366 94.800,371.235 94.800 C 371.103 94.800,370.771 94.294,370.497 93.675 C 370.224 93.056,369.685 92.201,369.300 91.775 C 368.915 91.349,368.345 90.505,368.032 89.900 C 367.720 89.295,367.315 88.800,367.132 88.800 C 366.950 88.800,366.800 88.480,366.800 88.088 C 366.800 87.697,366.440 87.117,366.000 86.800 C 365.560 86.483,365.200 86.020,365.200 85.771 C 365.200 85.522,364.660 84.754,364.000 84.063 C 363.340 83.372,362.800 82.575,362.800 82.292 C 362.800 82.009,362.440 81.517,362.000 81.200 C 361.560 80.883,361.200 80.383,361.200 80.088 C 361.200 79.794,361.020 79.664,360.800 79.800 C 360.580 79.936,360.400 79.666,360.400 79.200 C 360.400 78.734,360.247 78.447,360.060 78.563 C 359.873 78.678,359.483 78.329,359.193 77.786 C 358.902 77.244,358.515 76.800,358.332 76.800 C 358.150 76.800,358.000 76.568,358.000 76.283 C 358.000 75.999,357.370 75.099,356.600 74.282 C 355.830 73.466,355.200 72.634,355.200 72.434 C 355.200 72.234,354.120 70.973,352.800 69.632 C 351.480 68.292,350.400 67.037,350.400 66.845 C 350.400 66.652,348.602 64.719,346.405 62.548 C 341.688 57.888,342.389 58.587,337.433 53.595 C 335.251 51.398,333.307 49.600,333.114 49.600 C 332.920 49.600,331.862 48.700,330.762 47.600 C 329.662 46.500,328.683 45.600,328.586 45.600 C 328.403 45.600,327.631 44.984,325.463 43.106 C 324.768 42.505,324.039 42.010,323.843 42.006 C 323.647 42.003,322.971 41.460,322.340 40.800 C 321.709 40.140,320.914 39.600,320.573 39.600 C 320.232 39.600,320.064 39.420,320.200 39.200 C 320.336 38.980,320.167 38.800,319.824 38.800 C 319.481 38.800,319.200 38.620,319.200 38.400 C 319.200 38.180,318.919 38.000,318.576 38.000 C 318.233 38.000,318.064 37.820,318.200 37.600 C 318.336 37.380,318.165 37.200,317.820 37.200 C 317.475 37.200,316.628 36.660,315.937 36.000 C 315.246 35.340,314.504 34.800,314.288 34.800 C 314.071 34.800,313.603 34.485,313.247 34.100 C 312.891 33.715,312.330 33.342,312.000 33.270 C 311.670 33.199,311.340 32.974,311.267 32.770 C 311.193 32.567,310.868 32.400,310.543 32.400 C 310.218 32.400,310.064 32.220,310.200 32.000 C 310.336 31.780,310.077 31.600,309.624 31.600 C 309.171 31.600,308.800 31.445,308.800 31.256 C 308.800 31.066,307.990 30.481,307.000 29.956 C 306.010 29.431,305.200 28.894,305.200 28.764 C 305.200 28.633,304.345 28.095,303.300 27.568 C 302.255 27.042,301.268 26.428,301.106 26.205 C 300.914 25.940,300.808 25.938,300.800 26.200 C 300.792 26.467,300.690 26.467,300.494 26.200 C 300.062 25.612,298.503 24.800,297.805 24.800 C 297.472 24.800,297.200 24.620,297.200 24.400 C 297.200 24.180,296.840 24.000,296.400 24.000 C 295.960 24.000,295.600 23.841,295.600 23.647 C 295.600 23.452,295.285 23.193,294.900 23.071 C 294.215 22.854,291.996 21.596,291.600 21.200 C 291.490 21.090,291.130 20.941,290.800 20.870 C 290.470 20.798,290.140 20.573,290.067 20.370 C 289.993 20.166,289.588 20.000,289.167 20.000 C 288.745 20.000,288.399 19.865,288.397 19.700 C 288.393 19.294,286.414 18.400,285.520 18.400 C 285.124 18.400,284.800 18.220,284.800 18.000 C 284.800 17.780,284.440 17.600,284.000 17.600 C 283.560 17.600,283.200 17.420,283.200 17.200 C 283.200 16.980,282.928 16.800,282.595 16.800 C 281.897 16.800,280.338 15.988,279.906 15.400 C 279.744 15.180,279.609 15.156,279.606 15.346 C 279.603 15.536,279.156 15.401,278.614 15.046 C 278.072 14.691,277.262 14.400,276.814 14.400 C 276.366 14.400,276.000 14.220,276.000 14.000 C 276.000 13.780,275.550 13.600,275.000 13.600 C 274.450 13.600,274.000 13.459,274.000 13.287 C 274.000 13.115,273.145 12.726,272.100 12.422 C 271.055 12.118,270.110 11.760,270.000 11.626 C 269.671 11.225,262.317 8.860,260.493 8.568 C 259.562 8.420,258.800 8.141,258.800 7.949 C 258.800 7.757,258.170 7.600,257.400 7.600 C 256.630 7.600,256.000 7.420,256.000 7.200 C 256.000 6.980,255.471 6.800,254.824 6.800 C 254.177 6.800,253.536 6.620,253.400 6.400 C 253.264 6.180,252.533 6.000,251.776 6.000 C 251.019 6.000,250.400 5.820,250.400 5.600 C 250.400 5.380,249.680 5.200,248.800 5.200 C 247.920 5.200,247.200 5.020,247.200 4.800 C 247.200 4.580,246.300 4.400,245.200 4.400 C 244.100 4.400,243.200 4.220,243.200 4.000 C 243.200 3.780,242.491 3.600,241.624 3.600 C 240.757 3.600,239.936 3.420,239.800 3.200 C 239.664 2.980,238.764 2.800,237.800 2.800 C 236.836 2.800,235.936 2.620,235.800 2.400 C 235.664 2.180,234.584 2.000,233.400 2.000 C 232.216 2.000,231.136 1.820,231.000 1.600 C 230.864 1.380,229.518 1.200,228.010 1.200 C 226.212 1.200,225.211 1.032,225.105 0.714 C 224.944 0.233,187.130 -0.122,178.300 0.274 M207.400 16.790 C 218.243 17.345,225.762 18.230,235.200 20.064 C 245.617 22.088,262.070 27.023,269.112 30.236 C 270.273 30.766,271.303 31.200,271.400 31.200 C 272.333 31.200,284.674 37.377,291.000 41.011 C 330.356 63.618,359.419 99.295,374.079 143.000 C 375.330 146.731,375.382 146.906,376.804 152.200 C 379.441 162.021,382.234 177.357,381.936 180.384 L 381.800 181.767 377.600 182.621 C 375.290 183.090,372.050 183.698,370.400 183.971 C 368.750 184.245,366.590 184.620,365.600 184.805 C 357.973 186.230,339.784 188.437,326.200 189.586 C 314.244 190.597,284.170 191.904,283.020 191.463 C 282.697 191.339,282.353 190.424,282.214 189.323 C 277.915 155.161,251.833 126.269,218.600 118.857 C 210.569 117.066,209.917 117.000,200.200 117.006 C 190.048 117.012,188.312 117.202,179.700 119.252 C 155.203 125.083,130.967 146.508,123.022 169.357 C 122.707 170.261,122.006 172.260,121.463 173.800 C 119.977 178.012,118.000 186.663,118.000 188.954 C 118.000 191.779,118.065 191.764,107.157 191.454 C 95.181 191.113,84.285 190.581,77.400 190.000 C 74.540 189.758,70.220 189.395,67.800 189.192 C 56.875 188.275,48.460 187.254,35.000 185.211 C 33.680 185.011,31.565 184.656,30.300 184.423 C 29.035 184.191,27.055 183.834,25.900 183.632 C 24.745 183.429,22.450 182.979,20.800 182.632 C 19.150 182.285,17.732 182.001,17.648 182.000 C 16.716 181.998,20.258 161.090,22.595 152.800 C 22.936 151.590,23.418 149.880,23.666 149.000 C 24.302 146.746,27.169 137.962,27.582 137.000 C 27.772 136.560,28.408 134.940,28.997 133.400 C 29.586 131.860,30.341 129.970,30.674 129.200 C 31.008 128.430,31.428 127.440,31.606 127.000 C 33.223 123.012,40.441 108.990,42.014 106.780 C 42.446 106.173,42.800 105.565,42.800 105.429 C 42.800 104.949,50.951 92.950,53.825 89.200 C 73.113 64.030,101.399 41.860,127.400 31.532 C 128.500 31.095,130.030 30.463,130.800 30.128 C 133.072 29.139,134.082 28.755,140.500 26.444 C 145.892 24.502,154.015 22.277,161.600 20.665 C 173.489 18.138,182.378 17.123,198.400 16.460 C 199.170 16.428,203.220 16.577,207.400 16.790 M209.600 167.699 C 234.097 175.537,241.728 205.767,223.747 223.747 C 202.511 244.983,166.600 230.061,166.600 200.000 C 166.600 193.279,167.529 189.105,170.038 184.555 C 171.432 182.027,171.805 181.395,172.019 181.200 C 172.140 181.090,172.678 180.370,173.215 179.600 C 173.752 178.830,175.093 177.298,176.195 176.195 C 177.298 175.093,178.830 173.752,179.600 173.215 C 180.370 172.678,181.090 172.140,181.200 172.019 C 181.395 171.805,182.027 171.432,184.555 170.038 C 187.006 168.686,191.228 167.285,194.800 166.638 C 197.682 166.115,206.662 166.759,209.600 167.699 M20.445 198.827 C 21.630 199.061,23.680 199.437,25.000 199.661 C 26.320 199.885,28.300 200.233,29.400 200.434 C 30.500 200.634,32.660 200.992,34.200 201.229 C 35.740 201.466,38.080 201.826,39.400 202.029 C 40.720 202.231,43.240 202.580,45.000 202.803 C 46.760 203.026,49.640 203.393,51.400 203.618 C 66.329 205.532,87.945 207.028,106.200 207.411 C 119.104 207.681,117.783 207.217,118.374 211.693 C 118.644 213.732,119.023 216.030,119.217 216.800 C 119.412 217.570,119.866 219.370,120.228 220.800 C 120.589 222.230,120.976 223.897,121.088 224.505 C 121.200 225.113,121.451 225.708,121.646 225.829 C 121.841 225.949,122.000 226.399,122.000 226.829 C 122.000 227.259,122.159 227.923,122.353 228.305 C 122.740 229.066,123.536 230.942,124.006 232.200 C 124.723 234.124,127.860 240.345,128.881 241.872 C 129.497 242.792,130.000 243.649,130.000 243.776 C 130.000 244.292,135.197 251.436,137.582 254.199 C 142.494 259.889,153.519 269.283,157.200 270.916 C 157.530 271.062,158.700 271.722,159.800 272.382 C 162.831 274.201,168.417 276.831,171.000 277.656 C 171.880 277.937,172.780 278.277,173.000 278.411 C 173.220 278.546,174.210 278.889,175.200 279.174 C 176.190 279.459,177.450 279.835,178.000 280.008 C 180.185 280.697,185.234 281.706,189.877 282.382 C 193.544 282.915,206.517 282.925,209.967 282.397 C 215.027 281.623,217.817 281.101,220.000 280.518 C 221.210 280.195,222.740 279.788,223.400 279.613 C 224.878 279.221,228.319 278.079,229.400 277.621 C 229.840 277.434,230.920 276.975,231.800 276.600 C 250.700 268.550,265.398 254.453,274.337 235.800 C 275.497 233.380,276.615 231.087,276.823 230.705 C 277.030 230.323,277.200 229.684,277.200 229.285 C 277.200 228.886,277.348 228.389,277.528 228.180 C 278.055 227.570,279.962 220.996,280.772 217.000 C 280.995 215.900,281.362 214.155,281.589 213.123 C 281.815 212.090,282.000 210.612,282.000 209.837 C 282.000 207.762,282.283 207.710,294.800 207.449 C 309.431 207.144,322.312 206.430,335.000 205.221 C 345.448 204.226,347.656 203.995,352.200 203.418 C 362.969 202.051,372.055 200.616,379.400 199.122 C 383.573 198.273,383.381 198.140,383.537 202.000 C 383.770 207.795,382.634 220.272,380.951 230.400 C 379.654 238.204,378.555 243.108,376.333 251.000 C 375.689 253.289,372.833 262.032,372.381 263.100 C 372.171 263.595,371.820 264.450,371.600 265.000 C 371.380 265.550,371.038 266.405,370.840 266.900 C 370.643 267.395,370.251 268.430,369.970 269.200 C 368.474 273.295,363.066 284.502,360.221 289.400 C 358.943 291.600,357.560 293.991,357.148 294.713 C 348.874 309.214,330.657 330.359,317.000 341.312 C 310.642 346.412,301.482 353.200,300.959 353.200 C 300.855 353.200,299.201 354.248,297.285 355.530 C 295.368 356.811,293.530 357.977,293.200 358.120 C 292.870 358.264,291.700 358.931,290.600 359.603 C 287.155 361.707,272.801 368.615,268.200 370.384 C 263.048 372.364,262.042 372.770,261.105 373.247 C 260.723 373.441,260.059 373.600,259.629 373.600 C 259.199 373.600,258.736 373.780,258.600 374.000 C 258.464 374.220,257.924 374.400,257.400 374.400 C 256.876 374.400,256.349 374.559,256.229 374.754 C 256.108 374.949,255.513 375.204,254.905 375.321 C 253.900 375.515,253.140 375.718,249.400 376.789 C 247.843 377.235,240.716 379.043,238.400 379.579 C 232.835 380.869,223.132 382.229,212.600 383.198 C 194.560 384.856,161.829 381.323,149.281 376.363 C 148.776 376.163,147.931 376.000,147.405 376.000 C 146.878 376.000,146.336 375.820,146.200 375.600 C 146.064 375.380,145.524 375.200,145.000 375.200 C 144.476 375.200,143.936 375.020,143.800 374.800 C 143.664 374.580,143.124 374.400,142.600 374.400 C 142.076 374.400,141.536 374.220,141.400 374.000 C 141.264 373.780,140.724 373.600,140.200 373.600 C 139.676 373.600,139.136 373.420,139.000 373.200 C 138.864 372.980,138.437 372.800,138.052 372.800 C 137.666 372.800,136.605 372.440,135.694 372.000 C 134.784 371.560,133.848 371.200,133.614 371.200 C 133.380 371.200,132.877 371.041,132.495 370.847 C 132.113 370.652,131.350 370.311,130.800 370.088 C 130.250 369.865,128.764 369.216,127.498 368.646 C 126.232 368.075,124.162 367.172,122.898 366.639 C 119.755 365.313,110.598 360.600,110.000 359.999 C 109.890 359.889,109.260 359.535,108.600 359.212 C 107.940 358.889,106.648 358.124,105.728 357.512 C 104.808 356.901,103.863 356.400,103.628 356.400 C 103.393 356.400,103.200 356.220,103.200 356.000 C 103.200 355.780,103.001 355.600,102.757 355.600 C 101.873 355.600,88.095 345.790,83.466 341.865 C 82.990 341.461,81.707 340.381,80.617 339.465 C 74.764 334.551,65.449 325.236,60.535 319.383 C 59.619 318.293,58.539 317.010,58.135 316.534 C 56.185 314.234,55.655 313.568,53.259 310.400 C 50.011 306.105,43.600 296.554,43.600 296.011 C 43.600 295.785,43.441 295.600,43.247 295.600 C 43.052 295.600,42.793 295.285,42.671 294.900 C 42.454 294.215,41.196 291.996,40.800 291.600 C 40.521 291.321,39.715 289.893,37.864 286.400 C 34.427 279.913,32.397 275.522,29.819 269.000 C 28.341 265.260,26.967 261.887,26.766 261.505 C 26.565 261.123,26.400 260.459,26.400 260.029 C 26.400 259.599,26.220 259.136,26.000 259.000 C 25.780 258.864,25.600 258.324,25.600 257.800 C 25.600 257.276,25.420 256.736,25.200 256.600 C 24.980 256.464,24.800 255.924,24.800 255.400 C 24.800 254.876,24.620 254.336,24.400 254.200 C 24.180 254.064,24.000 253.434,24.000 252.800 C 24.000 252.166,23.820 251.536,23.600 251.400 C 23.380 251.264,23.200 250.711,23.200 250.171 C 23.200 249.631,23.042 248.877,22.849 248.495 C 22.220 247.249,21.600 244.966,21.600 243.895 C 21.600 243.319,21.439 242.748,21.242 242.626 C 21.045 242.505,20.787 241.729,20.668 240.903 C 20.549 240.076,20.252 238.500,20.008 237.400 C 18.004 228.379,16.829 218.546,16.155 205.144 C 15.786 197.798,15.723 197.891,20.445 198.827 " stroke="none" fill="#485459" fill-rule="evenodd"></path><path id="path2" d="M195.400 167.439 C 169.402 171.236,157.983 203.086,175.817 222.057 C 189.180 236.273,211.294 236.247,224.236 222.000 C 226.563 219.438,227.299 218.416,228.611 215.924 C 238.443 197.237,229.661 174.985,210.000 168.767 C 206.239 167.577,198.977 166.917,195.400 167.439 M17.459 199.474 C 16.993 199.940,17.196 209.656,17.809 216.200 C 18.737 226.114,19.639 232.096,21.219 238.800 C 21.453 239.790,21.804 241.320,22.000 242.200 C 22.518 244.529,23.083 246.778,23.606 248.600 C 23.859 249.480,24.162 250.697,24.279 251.305 C 24.396 251.913,24.651 252.508,24.846 252.629 C 25.041 252.749,25.200 253.366,25.200 254.000 C 25.200 254.634,25.380 255.264,25.600 255.400 C 25.820 255.536,26.000 255.999,26.000 256.429 C 26.000 256.859,26.174 257.523,26.387 257.905 C 26.600 258.287,27.033 259.410,27.349 260.400 C 29.477 267.066,36.591 282.904,40.016 288.600 C 40.677 289.700,41.335 290.870,41.478 291.200 C 41.911 292.200,44.921 296.591,45.272 296.733 C 45.453 296.807,45.600 297.122,45.600 297.433 C 45.600 297.745,45.780 298.000,46.000 298.000 C 46.220 298.000,46.400 298.193,46.400 298.428 C 46.400 298.878,48.594 302.225,49.481 303.129 C 49.766 303.419,50.000 303.811,50.000 304.000 C 50.000 304.189,50.229 304.581,50.509 304.871 C 50.788 305.162,51.847 306.573,52.862 308.006 C 53.877 309.440,55.369 311.420,56.178 312.406 C 57.892 314.497,58.147 314.814,60.006 317.164 C 64.147 322.405,77.600 335.858,82.835 339.994 C 85.181 341.848,85.500 342.105,87.594 343.822 C 88.580 344.631,90.560 346.124,91.994 347.139 C 93.427 348.154,94.660 349.123,94.733 349.293 C 94.807 349.462,95.077 349.600,95.333 349.601 C 95.590 349.601,96.430 350.141,97.200 350.800 C 97.970 351.459,98.825 351.999,99.100 351.999 C 99.375 352.000,99.600 352.180,99.600 352.400 C 99.600 352.620,99.870 352.800,100.200 352.800 C 100.530 352.800,100.800 352.980,100.800 353.200 C 100.800 353.420,101.070 353.600,101.400 353.600 C 101.730 353.600,102.000 353.780,102.000 354.000 C 102.000 354.220,102.270 354.400,102.600 354.400 C 102.930 354.400,103.200 354.580,103.200 354.800 C 103.200 355.020,103.470 355.200,103.800 355.200 C 104.130 355.200,104.400 355.380,104.400 355.600 C 104.400 355.820,104.670 356.000,105.000 356.000 C 105.330 356.000,105.600 356.180,105.600 356.400 C 105.600 356.620,105.960 356.800,106.400 356.800 C 106.840 356.800,107.200 356.959,107.200 357.153 C 107.200 357.348,107.515 357.607,107.900 357.729 C 108.592 357.948,110.814 359.210,111.200 359.604 C 111.310 359.716,114.280 361.213,117.800 362.932 C 121.320 364.651,124.513 366.224,124.895 366.429 C 125.277 366.633,125.862 366.800,126.195 366.800 C 126.528 366.800,126.800 366.980,126.800 367.200 C 126.800 367.420,127.160 367.600,127.600 367.600 C 128.040 367.600,128.400 367.780,128.400 368.000 C 128.400 368.220,128.749 368.400,129.176 368.400 C 129.603 368.400,130.064 368.580,130.200 368.800 C 130.336 369.020,130.887 369.200,131.424 369.200 C 131.961 369.200,132.400 369.380,132.400 369.600 C 132.400 369.820,132.850 370.000,133.400 370.000 C 133.950 370.000,134.400 370.180,134.400 370.400 C 134.400 370.620,134.749 370.800,135.176 370.800 C 135.603 370.800,136.064 370.980,136.200 371.200 C 136.336 371.420,136.887 371.600,137.424 371.600 C 137.961 371.600,138.400 371.780,138.400 372.000 C 138.400 372.220,138.940 372.400,139.600 372.400 C 140.260 372.400,140.800 372.580,140.800 372.800 C 140.800 373.020,141.340 373.200,142.000 373.200 C 142.660 373.200,143.200 373.380,143.200 373.600 C 143.200 373.820,143.740 374.000,144.400 374.000 C 145.060 374.000,145.600 374.180,145.600 374.400 C 145.600 374.620,146.129 374.800,146.776 374.800 C 147.423 374.800,148.064 374.980,148.200 375.200 C 148.336 375.420,148.966 375.600,149.600 375.600 C 150.234 375.600,150.852 375.760,150.973 375.956 C 151.094 376.151,151.779 376.400,152.496 376.507 C 153.213 376.615,155.960 377.198,158.600 377.803 C 161.240 378.408,164.300 379.053,165.400 379.236 C 166.500 379.419,168.390 379.768,169.600 380.011 C 170.810 380.254,173.240 380.625,175.000 380.836 C 176.760 381.046,179.820 381.413,181.800 381.651 C 186.417 382.205,213.477 382.214,218.200 381.663 C 220.180 381.431,223.060 381.132,224.600 380.998 C 226.140 380.863,227.760 380.593,228.200 380.397 C 228.640 380.202,229.810 379.953,230.800 379.844 C 233.548 379.543,236.713 378.916,243.200 377.389 C 244.630 377.052,246.479 376.667,247.310 376.534 C 248.140 376.401,248.916 376.136,249.033 375.946 C 249.151 375.756,249.766 375.600,250.400 375.600 C 251.034 375.600,251.664 375.420,251.800 375.200 C 251.936 374.980,252.566 374.800,253.200 374.800 C 253.834 374.800,254.464 374.620,254.600 374.400 C 254.736 374.180,255.287 374.000,255.824 374.000 C 256.361 374.000,256.800 373.820,256.800 373.600 C 256.800 373.380,257.340 373.200,258.000 373.200 C 258.660 373.200,259.200 373.020,259.200 372.800 C 259.200 372.580,259.740 372.400,260.400 372.400 C 261.060 372.400,261.600 372.220,261.600 372.000 C 261.600 371.780,262.039 371.600,262.576 371.600 C 263.113 371.600,263.664 371.420,263.800 371.200 C 263.936 370.980,264.397 370.800,264.824 370.800 C 265.251 370.800,265.600 370.620,265.600 370.400 C 265.600 370.180,265.926 370.000,266.325 370.000 C 266.724 370.000,267.795 369.640,268.706 369.200 C 269.616 368.760,270.640 368.400,270.981 368.400 C 271.321 368.400,271.600 368.220,271.600 368.000 C 271.600 367.780,271.853 367.600,272.162 367.600 C 272.471 367.600,273.416 367.257,274.262 366.837 C 275.108 366.417,278.680 364.662,282.200 362.937 C 285.720 361.212,288.690 359.710,288.800 359.600 C 289.196 359.204,291.415 357.946,292.100 357.729 C 292.485 357.607,292.800 357.348,292.800 357.153 C 292.800 356.959,293.078 356.800,293.417 356.800 C 293.756 356.800,294.389 356.469,294.823 356.064 C 295.258 355.659,296.105 355.074,296.707 354.764 C 297.308 354.454,298.149 353.885,298.575 353.500 C 299.002 353.115,299.587 352.800,299.875 352.800 C 300.164 352.800,300.400 352.620,300.400 352.400 C 300.400 352.180,300.625 352.000,300.900 351.999 C 301.175 351.999,302.030 351.459,302.800 350.800 C 303.570 350.141,304.425 349.601,304.700 349.601 C 304.975 349.600,305.200 349.459,305.200 349.286 C 305.200 349.114,305.733 348.657,306.385 348.272 C 307.037 347.887,307.803 347.353,308.087 347.086 C 308.371 346.819,310.042 345.521,311.801 344.202 C 313.561 342.883,315.202 341.614,315.449 341.381 C 315.697 341.149,316.661 340.338,317.591 339.579 C 323.100 335.090,336.082 322.119,339.200 317.986 C 339.750 317.258,340.560 316.288,341.000 315.831 C 341.440 315.374,342.880 313.561,344.200 311.801 C 345.520 310.042,346.819 308.371,347.086 308.087 C 347.353 307.803,347.887 307.037,348.272 306.385 C 348.657 305.733,349.114 305.200,349.286 305.200 C 349.459 305.200,349.600 304.975,349.601 304.700 C 349.601 304.425,350.141 303.570,350.800 302.800 C 351.459 302.030,351.999 301.175,351.999 300.900 C 352.000 300.625,352.180 300.400,352.400 300.400 C 352.620 300.400,352.800 300.164,352.800 299.875 C 352.800 299.587,353.160 298.964,353.600 298.492 C 354.040 298.020,354.400 297.446,354.400 297.217 C 354.400 296.988,354.580 296.800,354.800 296.800 C 355.020 296.800,355.200 296.564,355.200 296.275 C 355.200 295.987,355.560 295.364,356.000 294.892 C 356.440 294.420,356.800 293.756,356.800 293.417 C 356.800 293.078,356.959 292.800,357.153 292.800 C 357.348 292.800,357.607 292.485,357.729 292.100 C 357.946 291.415,359.204 289.196,359.600 288.800 C 359.808 288.592,364.534 279.121,365.974 276.025 C 366.428 275.049,366.800 274.014,366.800 273.725 C 366.800 273.436,366.980 273.200,367.200 273.200 C 367.420 273.200,367.600 272.840,367.600 272.400 C 367.600 271.960,367.780 271.600,368.000 271.600 C 368.220 271.600,368.400 271.251,368.400 270.824 C 368.400 270.397,368.580 269.936,368.800 269.800 C 369.020 269.664,369.200 269.113,369.200 268.576 C 369.200 268.039,369.380 267.600,369.600 267.600 C 369.820 267.600,370.000 267.150,370.000 266.600 C 370.000 266.050,370.180 265.600,370.400 265.600 C 370.620 265.600,370.800 265.150,370.800 264.600 C 370.800 264.050,370.980 263.600,371.200 263.600 C 371.420 263.600,371.600 263.150,371.600 262.600 C 371.600 262.050,371.780 261.600,372.000 261.600 C 372.220 261.600,372.400 261.060,372.400 260.400 C 372.400 259.740,372.580 259.200,372.800 259.200 C 373.020 259.200,373.200 258.660,373.200 258.000 C 373.200 257.340,373.380 256.800,373.600 256.800 C 373.820 256.800,374.000 256.260,374.000 255.600 C 374.000 254.940,374.180 254.400,374.400 254.400 C 374.620 254.400,374.800 253.871,374.800 253.224 C 374.800 252.577,374.980 251.936,375.200 251.800 C 375.420 251.664,375.600 251.111,375.600 250.571 C 375.600 250.031,375.760 249.277,375.955 248.895 C 376.150 248.513,376.622 246.760,377.003 245.000 C 377.384 243.240,377.834 241.260,378.002 240.600 C 378.170 239.940,378.516 238.320,378.770 237.000 C 379.025 235.680,379.405 233.832,379.616 232.894 C 379.827 231.956,380.000 230.597,380.000 229.874 C 380.000 229.151,380.166 228.389,380.369 228.180 C 380.572 227.971,380.837 226.540,380.959 225.000 C 381.081 223.460,381.374 220.490,381.611 218.400 C 381.848 216.310,382.133 211.225,382.245 207.100 L 382.448 199.600 381.248 199.600 C 380.588 199.600,379.936 199.780,379.800 200.000 C 379.664 200.220,378.764 200.400,377.800 200.400 C 376.836 200.400,375.936 200.580,375.800 200.800 C 375.664 201.020,374.699 201.200,373.656 201.200 C 372.613 201.200,371.589 201.363,371.380 201.563 C 371.171 201.763,370.100 202.025,369.000 202.145 C 367.900 202.266,365.650 202.564,364.000 202.807 C 354.053 204.275,349.609 204.827,346.000 205.046 C 344.350 205.146,341.020 205.409,338.600 205.630 C 326.471 206.741,315.755 207.436,302.600 207.965 C 297.320 208.178,290.718 208.478,287.930 208.633 L 282.859 208.914 282.611 210.957 C 282.163 214.648,280.495 222.232,279.610 224.600 C 279.445 225.040,279.094 226.120,278.829 227.000 C 278.368 228.532,278.220 228.936,277.301 231.200 C 276.267 233.745,272.525 241.171,271.519 242.672 C 270.904 243.592,270.400 244.469,270.400 244.621 C 270.400 245.621,263.260 254.634,259.148 258.825 C 251.535 266.583,240.937 273.802,232.100 277.249 C 231.605 277.442,230.750 277.780,230.200 278.000 C 229.650 278.220,228.795 278.562,228.300 278.760 C 227.021 279.271,225.282 279.830,223.200 280.400 C 222.210 280.671,220.950 281.030,220.400 281.197 C 219.227 281.553,216.510 282.137,212.600 282.873 C 210.765 283.218,206.424 283.400,200.000 283.400 C 193.576 283.400,189.235 283.218,187.400 282.873 C 183.490 282.137,180.773 281.553,179.600 281.197 C 179.050 281.030,177.790 280.671,176.800 280.400 C 174.049 279.647,172.426 279.095,169.900 278.054 C 169.295 277.804,168.395 277.439,167.900 277.242 C 164.746 275.987,155.929 271.267,154.200 269.908 C 153.980 269.735,152.000 268.269,149.800 266.650 C 138.659 258.451,127.449 243.812,122.806 231.400 C 122.642 230.960,122.315 230.150,122.080 229.600 C 121.845 229.050,121.436 227.880,121.171 227.000 C 120.906 226.120,120.548 225.040,120.375 224.600 C 119.666 222.794,117.780 214.179,117.389 210.957 L 117.141 208.914 112.870 208.619 C 110.522 208.456,104.010 208.156,98.400 207.951 C 79.306 207.253,61.825 205.891,47.900 204.017 C 46.195 203.788,43.495 203.429,41.900 203.219 C 34.640 202.266,22.275 200.245,18.559 199.405 C 18.097 199.300,17.602 199.331,17.459 199.474 " stroke="none" fill="#f2f2f2" fill-rule="evenodd"></path><path id="path3" d="M16.569 199.337 C 16.455 199.633,16.418 201.208,16.486 202.837 L 16.609 205.800 16.804 202.299 C 16.999 198.811,16.960 198.317,16.569 199.337 M382.931 205.800 C 382.933 207.340,383.005 207.921,383.092 207.091 C 383.179 206.261,383.177 205.001,383.089 204.291 C 383.000 203.581,382.929 204.260,382.931 205.800 M71.505 206.283 C 72.002 206.379,72.722 206.375,73.105 206.275 C 73.487 206.175,73.080 206.096,72.200 206.101 C 71.320 206.105,71.007 206.187,71.505 206.283 M328.100 206.276 C 328.485 206.376,329.115 206.376,329.500 206.276 C 329.885 206.175,329.570 206.093,328.800 206.093 C 328.030 206.093,327.715 206.175,328.100 206.276 M82.505 207.087 C 83.114 207.179,84.014 207.177,84.505 207.082 C 84.997 206.987,84.500 206.911,83.400 206.914 C 82.300 206.917,81.897 206.995,82.505 207.087 M317.105 207.083 C 317.602 207.179,318.322 207.175,318.705 207.075 C 319.087 206.975,318.680 206.896,317.800 206.901 C 316.920 206.905,316.607 206.987,317.105 207.083 M91.300 207.476 C 91.685 207.576,92.315 207.576,92.700 207.476 C 93.085 207.375,92.770 207.293,92.000 207.293 C 91.230 207.293,90.915 207.375,91.300 207.476 M98.700 207.893 C 99.635 207.977,101.165 207.977,102.100 207.893 C 103.035 207.809,102.270 207.740,100.400 207.740 C 98.530 207.740,97.765 207.809,98.700 207.893 M300.707 207.890 C 301.426 207.979,302.506 207.977,303.107 207.886 C 303.708 207.795,303.120 207.722,301.800 207.724 C 300.480 207.726,299.988 207.801,300.707 207.890 M114.800 208.156 C 114.800 208.242,115.417 208.385,116.172 208.473 C 116.927 208.561,117.456 208.490,117.348 208.316 C 117.155 208.003,114.800 207.855,114.800 208.156 M284.307 208.290 C 285.026 208.379,286.106 208.377,286.707 208.286 C 287.308 208.195,286.720 208.122,285.400 208.124 C 284.080 208.126,283.588 208.201,284.307 208.290 M16.901 209.800 C 16.905 210.680,16.987 210.993,17.083 210.495 C 17.179 209.998,17.175 209.278,17.075 208.895 C 16.975 208.513,16.896 208.920,16.901 209.800 M258.585 258.900 L 256.600 261.000 258.700 259.015 C 259.855 257.923,260.800 256.978,260.800 256.915 C 260.800 256.617,260.429 256.949,258.585 258.900 M197.900 283.495 C 199.055 283.576,200.945 283.576,202.100 283.495 C 203.255 283.414,202.310 283.348,200.000 283.348 C 197.690 283.348,196.745 283.414,197.900 283.495 M65.400 324.400 C 66.259 325.280,67.052 326.000,67.162 326.000 C 67.272 326.000,66.659 325.280,65.800 324.400 C 64.941 323.520,64.148 322.800,64.038 322.800 C 63.928 322.800,64.541 323.520,65.400 324.400 M332.175 326.500 L 331.000 327.800 332.300 326.625 C 333.015 325.979,333.600 325.394,333.600 325.325 C 333.600 325.016,333.270 325.288,332.175 326.500 M325.781 332.900 L 324.200 334.600 325.900 333.019 C 327.481 331.548,327.784 331.200,327.481 331.200 C 327.416 331.200,326.651 331.965,325.781 332.900 M75.400 334.400 C 76.259 335.280,77.052 336.000,77.162 336.000 C 77.272 336.000,76.659 335.280,75.800 334.400 C 74.941 333.520,74.148 332.800,74.038 332.800 C 73.928 332.800,74.541 333.520,75.400 334.400 M191.907 383.090 C 192.626 383.179,193.706 383.177,194.307 383.086 C 194.908 382.995,194.320 382.922,193.000 382.924 C 191.680 382.926,191.188 383.001,191.907 383.090 M205.507 383.090 C 206.226 383.179,207.306 383.177,207.907 383.086 C 208.508 382.995,207.920 382.922,206.600 382.924 C 205.280 382.926,204.788 383.001,205.507 383.090 " stroke="none" fill="#aaafb1" fill-rule="evenodd"></path><path id="path4" d="M197.300 166.676 C 197.685 166.776,198.315 166.776,198.700 166.676 C 199.085 166.575,198.770 166.493,198.000 166.493 C 197.230 166.493,196.915 166.575,197.300 166.676 M201.300 166.676 C 201.685 166.776,202.315 166.776,202.700 166.676 C 203.085 166.575,202.770 166.493,202.000 166.493 C 201.230 166.493,200.915 166.575,201.300 166.676 M176.185 176.500 L 174.200 178.600 176.300 176.615 C 177.455 175.523,178.400 174.578,178.400 174.515 C 178.400 174.217,178.029 174.549,176.185 176.500 M223.400 176.400 C 224.259 177.280,225.052 178.000,225.162 178.000 C 225.272 178.000,224.659 177.280,223.800 176.400 C 222.941 175.520,222.148 174.800,222.038 174.800 C 221.928 174.800,222.541 175.520,223.400 176.400 M166.493 198.000 C 166.493 198.770,166.575 199.085,166.676 198.700 C 166.776 198.315,166.776 197.685,166.676 197.300 C 166.575 196.915,166.493 197.230,166.493 198.000 M233.320 200.000 C 233.320 201.210,233.395 201.705,233.487 201.100 C 233.578 200.495,233.578 199.505,233.487 198.900 C 233.395 198.295,233.320 198.790,233.320 200.000 M383.301 201.000 C 383.305 201.880,383.387 202.193,383.483 201.695 C 383.579 201.198,383.575 200.478,383.475 200.095 C 383.375 199.713,383.296 200.120,383.301 201.000 M166.493 202.000 C 166.493 202.770,166.575 203.085,166.676 202.700 C 166.776 202.315,166.776 201.685,166.676 201.300 C 166.575 200.915,166.493 201.230,166.493 202.000 M16.501 207.000 C 16.505 207.880,16.587 208.193,16.683 207.695 C 16.779 207.198,16.775 206.478,16.675 206.095 C 16.575 205.713,16.496 206.120,16.501 207.000 M74.100 206.276 C 74.485 206.376,75.115 206.376,75.500 206.276 C 75.885 206.175,75.570 206.093,74.800 206.093 C 74.030 206.093,73.715 206.175,74.100 206.276 M86.105 207.087 C 86.714 207.179,87.614 207.177,88.105 207.082 C 88.597 206.987,88.100 206.911,87.000 206.914 C 85.900 206.917,85.497 206.995,86.105 207.087 M314.305 207.083 C 314.802 207.179,315.522 207.175,315.905 207.075 C 316.287 206.975,315.880 206.896,315.000 206.901 C 314.120 206.905,313.807 206.987,314.305 207.083 M104.900 207.891 C 105.725 207.978,107.075 207.978,107.900 207.891 C 108.725 207.805,108.050 207.734,106.400 207.734 C 104.750 207.734,104.075 207.805,104.900 207.891 M295.491 207.889 C 296.201 207.977,297.461 207.979,298.291 207.892 C 299.121 207.805,298.540 207.733,297.000 207.731 C 295.460 207.729,294.781 207.800,295.491 207.889 M175.200 222.525 C 175.200 222.594,175.785 223.179,176.500 223.825 L 177.800 225.000 176.625 223.700 C 175.530 222.488,175.200 222.216,175.200 222.525 M223.375 223.700 L 222.200 225.000 223.500 223.825 C 224.215 223.179,224.800 222.594,224.800 222.525 C 224.800 222.216,224.470 222.488,223.375 223.700 M198.900 233.487 C 199.505 233.578,200.495 233.578,201.100 233.487 C 201.705 233.395,201.210 233.320,200.000 233.320 C 198.790 233.320,198.295 233.395,198.900 233.487 M69.800 329.200 C 70.883 330.300,71.860 331.200,71.970 331.200 C 72.080 331.200,71.283 330.300,70.200 329.200 C 69.117 328.100,68.140 327.200,68.030 327.200 C 67.920 327.200,68.717 328.100,69.800 329.200 M197.516 383.497 C 198.899 383.575,201.059 383.574,202.316 383.495 C 203.572 383.416,202.440 383.352,199.800 383.353 C 197.160 383.353,196.132 383.418,197.516 383.497 " stroke="none" fill="#8f9498" fill-rule="evenodd"></path><path id="path5" d="M198.311 16.693 C 199.251 16.778,200.691 16.777,201.511 16.691 C 202.330 16.605,201.560 16.536,199.800 16.537 C 198.040 16.539,197.370 16.609,198.311 16.693 M91.600 52.049 C 90.206 53.271,90.205 53.272,91.488 52.419 C 92.196 51.948,92.882 51.391,93.012 51.181 C 93.397 50.557,93.077 50.754,91.600 52.049 M88.400 54.449 C 87.006 55.671,87.005 55.672,88.288 54.819 C 88.996 54.348,89.682 53.791,89.812 53.581 C 90.197 52.957,89.877 53.154,88.400 54.449 M80.975 60.500 L 79.800 61.800 81.100 60.625 C 82.312 59.530,82.584 59.200,82.275 59.200 C 82.206 59.200,81.621 59.785,80.975 60.500 M78.175 62.900 L 77.000 64.200 78.300 63.025 C 79.512 61.930,79.784 61.600,79.475 61.600 C 79.406 61.600,78.821 62.185,78.175 62.900 M70.192 70.500 L 66.200 74.600 70.300 70.608 C 74.108 66.899,74.582 66.400,74.292 66.400 C 74.233 66.400,72.388 68.245,70.192 70.500 M61.600 79.515 C 60.170 81.195,59.205 82.443,59.455 82.289 C 60.195 81.832,64.914 76.397,64.541 76.430 C 64.354 76.447,63.030 77.835,61.600 79.515 M51.775 91.868 C 51.159 92.676,50.859 93.211,51.109 93.056 C 51.621 92.740,53.353 90.400,53.075 90.400 C 52.976 90.400,52.391 91.061,51.775 91.868 M43.414 104.235 C 43.041 104.804,42.805 105.338,42.889 105.422 C 42.973 105.507,43.358 105.041,43.744 104.388 C 44.606 102.928,44.348 102.809,43.414 104.235 M41.014 108.235 C 40.641 108.804,40.405 109.338,40.489 109.422 C 40.573 109.507,40.958 109.041,41.344 108.388 C 42.206 106.928,41.948 106.809,41.014 108.235 M36.800 116.000 C 36.351 116.880,36.074 117.600,36.184 117.600 C 36.294 117.600,36.751 116.880,37.200 116.000 C 37.649 115.120,37.926 114.400,37.816 114.400 C 37.706 114.400,37.249 115.120,36.800 116.000 M35.072 119.419 C 34.132 121.389,34.264 121.724,35.247 119.862 C 35.693 119.016,35.987 118.254,35.901 118.167 C 35.814 118.081,35.441 118.644,35.072 119.419 M24.249 146.615 C 24.112 146.973,24.015 147.566,24.034 147.933 C 24.053 148.300,24.227 148.069,24.421 147.420 C 24.798 146.158,24.665 145.533,24.249 146.615 M23.449 149.415 C 23.312 149.773,23.215 150.366,23.234 150.733 C 23.253 151.100,23.427 150.869,23.621 150.220 C 23.998 148.958,23.865 148.333,23.449 149.415 M22.446 153.267 C 22.421 153.634,22.296 154.264,22.170 154.667 C 21.952 155.362,21.963 155.363,22.397 154.687 C 22.648 154.296,22.773 153.666,22.673 153.287 C 22.511 152.668,22.488 152.666,22.446 153.267 M20.849 159.800 C 20.816 160.240,20.696 161.050,20.583 161.600 L 20.377 162.600 20.806 161.619 C 21.042 161.079,21.161 160.269,21.072 159.819 C 20.913 159.021,20.907 159.021,20.849 159.800 M19.840 164.440 C 19.693 165.357,19.652 166.185,19.747 166.280 C 19.842 166.376,20.046 165.710,20.200 164.800 C 20.354 163.890,20.396 163.062,20.293 162.960 C 20.190 162.857,19.987 163.523,19.840 164.440 M193.300 167.076 C 193.685 167.176,194.315 167.176,194.700 167.076 C 195.085 166.975,194.770 166.893,194.000 166.893 C 193.230 166.893,192.915 166.975,193.300 167.076 M205.300 167.076 C 205.685 167.176,206.315 167.176,206.700 167.076 C 207.085 166.975,206.770 166.893,206.000 166.893 C 205.230 166.893,204.915 166.975,205.300 167.076 M19.254 168.000 C 19.219 168.550,19.096 169.450,18.983 170.000 L 18.777 171.000 19.207 170.015 C 19.443 169.474,19.565 168.574,19.478 168.015 L 19.320 167.000 19.254 168.000 M188.600 168.214 C 187.013 168.941,187.780 168.939,189.800 168.212 C 190.680 167.895,191.040 167.642,190.600 167.650 C 190.160 167.658,189.260 167.912,188.600 168.214 M18.215 174.215 C 18.061 175.454,18.017 176.550,18.119 176.652 C 18.220 176.754,18.430 175.823,18.585 174.585 C 18.739 173.346,18.783 172.250,18.681 172.148 C 18.580 172.046,18.370 172.977,18.215 174.215 M17.714 180.200 C 17.717 181.300,17.795 181.703,17.887 181.095 C 17.979 180.486,17.977 179.586,17.882 179.095 C 17.787 178.603,17.711 179.100,17.714 180.200 M19.600 182.400 C 20.968 182.838,22.019 182.838,21.000 182.400 C 20.560 182.211,19.840 182.062,19.400 182.068 C 18.757 182.077,18.796 182.143,19.600 182.400 M56.900 188.276 C 57.285 188.376,57.915 188.376,58.300 188.276 C 58.685 188.175,58.370 188.093,57.600 188.093 C 56.830 188.093,56.515 188.175,56.900 188.276 M85.500 190.682 C 85.995 190.778,86.805 190.778,87.300 190.682 C 87.795 190.587,87.390 190.509,86.400 190.509 C 85.410 190.509,85.005 190.587,85.500 190.682 M104.505 191.487 C 105.114 191.579,106.014 191.577,106.505 191.482 C 106.997 191.387,106.500 191.311,105.400 191.314 C 104.300 191.317,103.897 191.395,104.505 191.487 M233.293 196.800 C 233.293 197.570,233.375 197.885,233.476 197.500 C 233.576 197.115,233.576 196.485,233.476 196.100 C 233.375 195.715,233.293 196.030,233.293 196.800 M16.173 198.927 C 16.061 199.217,16.023 201.332,16.088 203.627 L 16.205 207.800 16.403 203.099 C 16.598 198.452,16.567 197.899,16.173 198.927 M18.600 198.790 C 19.364 199.128,21.914 199.357,21.567 199.056 C 21.475 198.976,20.590 198.804,19.600 198.673 C 18.398 198.514,18.066 198.553,18.600 198.790 M381.000 198.820 C 380.395 199.106,380.529 199.139,381.550 198.956 C 382.463 198.793,383.023 198.890,383.280 199.257 C 383.588 199.697,383.630 199.686,383.499 199.200 C 383.305 198.480,382.104 198.298,381.000 198.820 M377.000 199.600 C 376.496 199.817,376.422 199.944,376.800 199.944 C 377.130 199.944,377.760 199.789,378.200 199.600 C 378.704 199.383,378.778 199.256,378.400 199.256 C 378.070 199.256,377.440 199.411,377.000 199.600 M23.633 199.744 C 23.725 199.823,24.700 199.991,25.800 200.118 C 27.087 200.267,27.515 200.226,27.000 200.003 C 26.236 199.672,23.286 199.445,23.633 199.744 M28.033 200.544 C 28.125 200.623,29.100 200.791,30.200 200.918 C 31.487 201.067,31.915 201.026,31.400 200.803 C 30.636 200.472,27.686 200.245,28.033 200.544 M32.833 201.344 C 32.925 201.423,33.990 201.589,35.200 201.712 C 36.569 201.851,37.098 201.808,36.600 201.596 C 35.833 201.270,32.489 201.047,32.833 201.344 M38.033 202.144 C 38.125 202.223,39.190 202.389,40.400 202.512 C 41.769 202.651,42.298 202.608,41.800 202.396 C 41.033 202.070,37.689 201.847,38.033 202.144 M361.700 202.276 C 362.085 202.376,362.715 202.376,363.100 202.276 C 363.485 202.175,363.170 202.093,362.400 202.093 C 361.630 202.093,361.315 202.175,361.700 202.276 M383.342 205.800 C 383.341 207.780,383.408 208.640,383.492 207.712 C 383.576 206.784,383.577 205.164,383.495 204.112 C 383.412 203.060,383.343 203.820,383.342 205.800 M44.033 202.945 C 44.125 203.024,45.280 203.187,46.600 203.307 C 48.049 203.438,48.683 203.392,48.200 203.190 C 47.430 202.869,43.693 202.649,44.033 202.945 M166.672 205.000 C 166.799 206.100,166.969 207.075,167.051 207.167 C 167.332 207.482,167.120 204.999,166.780 204.000 C 166.551 203.326,166.516 203.651,166.672 205.000 M50.433 203.744 C 50.525 203.824,51.680 203.989,53.000 204.112 C 54.491 204.251,55.021 204.211,54.400 204.007 C 53.412 203.684,50.111 203.465,50.433 203.744 M349.505 203.883 C 350.002 203.979,350.722 203.975,351.105 203.875 C 351.487 203.775,351.080 203.696,350.200 203.701 C 349.320 203.705,349.007 203.787,349.505 203.883 M57.633 204.545 C 57.725 204.625,59.060 204.792,60.600 204.916 C 62.304 205.053,63.009 205.012,62.400 204.811 C 61.422 204.487,57.304 204.258,57.633 204.545 M341.700 204.687 C 342.305 204.778,343.295 204.778,343.900 204.687 C 344.505 204.595,344.010 204.520,342.800 204.520 C 341.590 204.520,341.095 204.595,341.700 204.687 M65.633 205.346 C 65.725 205.426,67.240 205.591,69.000 205.712 C 70.894 205.841,71.710 205.801,71.000 205.613 C 69.797 205.294,65.320 205.071,65.633 205.346 M333.100 205.482 C 333.595 205.578,334.405 205.578,334.900 205.482 C 335.395 205.387,334.990 205.309,334.000 205.309 C 333.010 205.309,332.605 205.387,333.100 205.482 M76.033 206.144 C 76.125 206.223,77.640 206.386,79.400 206.506 C 81.246 206.631,82.177 206.587,81.600 206.402 C 80.622 206.087,75.704 205.859,76.033 206.144 M322.707 206.290 C 323.426 206.379,324.506 206.377,325.107 206.286 C 325.708 206.195,325.120 206.122,323.800 206.124 C 322.480 206.126,321.988 206.201,322.707 206.290 M88.833 206.945 C 88.925 207.024,91.070 207.185,93.600 207.301 C 96.547 207.437,97.553 207.396,96.400 207.186 C 94.614 206.862,88.514 206.667,88.833 206.945 M309.111 207.093 C 310.051 207.178,311.491 207.177,312.311 207.091 C 313.130 207.005,312.360 206.936,310.600 206.937 C 308.840 206.939,308.170 207.009,309.111 207.093 M303.905 207.483 C 304.402 207.579,305.122 207.575,305.505 207.475 C 305.887 207.375,305.480 207.296,304.600 207.301 C 303.720 207.305,303.407 207.387,303.905 207.483 M112.978 207.899 C 115.165 207.972,117.190 208.226,117.478 208.464 C 117.813 208.743,118.000 208.753,118.000 208.492 C 118.000 207.781,116.835 207.598,112.867 207.684 L 109.000 207.767 112.978 207.899 M285.900 207.897 C 287.495 207.973,290.105 207.973,291.700 207.897 C 293.295 207.821,291.990 207.759,288.800 207.759 C 285.610 207.759,284.305 207.821,285.900 207.897 M16.514 210.200 C 16.517 211.300,16.595 211.703,16.687 211.095 C 16.779 210.486,16.777 209.586,16.682 209.095 C 16.587 208.603,16.511 209.100,16.514 210.200 M167.618 209.254 C 167.608 209.614,167.863 210.514,168.184 211.254 C 168.940 212.994,168.958 212.273,168.212 210.200 C 167.895 209.320,167.627 208.894,167.618 209.254 M118.093 211.600 C 118.093 212.370,118.175 212.685,118.276 212.300 C 118.376 211.915,118.376 211.285,118.276 210.900 C 118.175 210.515,118.093 210.830,118.093 211.600 M382.901 211.800 C 382.905 212.680,382.987 212.993,383.083 212.495 C 383.179 211.998,383.175 211.278,383.075 210.895 C 382.975 210.513,382.896 210.920,382.901 211.800 M16.871 216.000 C 16.876 217.650,17.015 219.450,17.180 220.000 C 17.346 220.550,17.403 219.380,17.308 217.400 C 17.087 212.828,16.861 212.101,16.871 216.000 M118.856 216.400 C 118.856 216.730,119.011 217.360,119.200 217.800 C 119.417 218.304,119.544 218.378,119.544 218.000 C 119.544 217.670,119.389 217.040,119.200 216.600 C 118.983 216.096,118.856 216.022,118.856 216.400 M174.034 221.447 C 174.565 222.133,175.080 222.623,175.179 222.535 C 175.277 222.447,174.843 221.886,174.213 221.288 L 173.069 220.200 174.034 221.447 M17.628 223.433 C 17.644 224.515,17.804 225.760,17.985 226.200 C 18.178 226.670,18.226 225.927,18.102 224.400 C 17.848 221.255,17.589 220.729,17.628 223.433 M177.233 224.900 C 177.325 224.955,177.940 225.450,178.600 226.000 L 179.800 227.000 178.830 225.900 C 178.297 225.295,177.682 224.800,177.464 224.800 C 177.245 224.800,177.142 224.845,177.233 224.900 M18.428 229.033 C 18.444 229.895,18.609 230.960,18.796 231.400 C 19.008 231.898,19.051 231.369,18.912 230.000 C 18.644 227.365,18.389 226.857,18.428 229.033 M186.800 231.000 C 187.350 231.314,188.070 231.571,188.400 231.570 C 188.730 231.569,188.394 231.306,187.654 230.984 C 185.951 230.245,185.494 230.253,186.800 231.000 M19.206 233.833 C 19.209 234.475,19.396 235.270,19.621 235.600 C 19.914 236.030,19.954 235.746,19.762 234.600 C 19.430 232.616,19.198 232.296,19.206 233.833 M196.100 233.476 C 196.485 233.576,197.115 233.576,197.500 233.476 C 197.885 233.375,197.570 233.293,196.800 233.293 C 196.030 233.293,195.715 233.375,196.100 233.476 M202.500 233.476 C 202.885 233.576,203.515 233.576,203.900 233.476 C 204.285 233.375,203.970 233.293,203.200 233.293 C 202.430 233.293,202.115 233.375,202.500 233.476 M20.006 237.633 C 20.009 238.165,20.189 238.870,20.406 239.200 C 20.682 239.622,20.723 239.385,20.542 238.400 C 20.225 236.675,19.998 236.349,20.006 237.633 M20.800 241.310 C 20.800 241.883,20.987 242.468,21.216 242.610 C 21.489 242.779,21.538 242.477,21.360 241.734 C 20.992 240.201,20.800 240.056,20.800 241.310 M128.760 242.200 C 129.434 243.505,129.988 244.228,129.985 243.800 C 129.983 243.580,129.614 242.950,129.164 242.400 C 128.621 241.736,128.485 241.669,128.760 242.200 M21.606 244.633 C 21.609 245.055,21.795 245.670,22.018 246.000 C 22.315 246.438,22.352 246.276,22.156 245.400 C 21.827 243.929,21.598 243.610,21.606 244.633 M136.800 253.725 C 136.800 253.794,137.385 254.379,138.100 255.025 L 139.400 256.200 138.225 254.900 C 137.130 253.688,136.800 253.416,136.800 253.725 M259.375 257.700 L 258.200 259.000 259.500 257.825 C 260.215 257.179,260.800 256.594,260.800 256.525 C 260.800 256.216,260.470 256.488,259.375 257.700 M141.200 258.600 C 141.946 259.370,142.647 260.000,142.757 260.000 C 142.867 260.000,142.346 259.370,141.600 258.600 C 140.854 257.830,140.153 257.200,140.043 257.200 C 139.933 257.200,140.454 257.830,141.200 258.600 M256.575 260.500 L 255.400 261.800 256.700 260.625 C 257.415 259.979,258.000 259.394,258.000 259.325 C 258.000 259.016,257.670 259.288,256.575 260.500 M144.800 261.725 C 144.800 261.794,145.385 262.379,146.100 263.025 L 147.400 264.200 146.225 262.900 C 145.130 261.688,144.800 261.416,144.800 261.725 M149.744 265.909 C 150.060 266.421,152.400 268.153,152.400 267.875 C 152.400 267.776,151.739 267.191,150.932 266.575 C 150.124 265.959,149.589 265.659,149.744 265.909 M32.388 275.368 C 33.099 277.239,36.477 284.000,36.800 284.200 C 36.976 284.309,36.148 282.430,34.960 280.025 C 33.772 277.621,32.800 275.472,32.800 275.250 C 32.800 275.029,32.621 274.736,32.401 274.601 C 32.138 274.438,32.133 274.699,32.388 275.368 M183.800 281.600 C 184.240 281.789,184.870 281.944,185.200 281.944 C 185.578 281.944,185.504 281.817,185.000 281.600 C 184.560 281.411,183.930 281.256,183.600 281.256 C 183.222 281.256,183.296 281.383,183.800 281.600 M197.916 283.097 C 199.299 283.175,201.459 283.174,202.716 283.095 C 203.972 283.016,202.840 282.952,200.200 282.953 C 197.560 282.953,196.532 283.018,197.916 283.097 M50.573 306.818 C 52.831 309.974,53.635 310.656,51.588 307.678 C 50.634 306.292,49.664 305.040,49.433 304.897 C 49.201 304.754,49.714 305.618,50.573 306.818 M54.342 311.800 C 55.791 313.857,56.386 314.548,56.555 314.371 C 56.645 314.277,55.994 313.390,55.108 312.400 C 54.222 311.410,53.878 311.140,54.342 311.800 M339.375 318.900 L 338.200 320.200 339.500 319.025 C 340.215 318.379,340.800 317.794,340.800 317.725 C 340.800 317.416,340.470 317.688,339.375 318.900 M65.415 324.812 C 66.727 326.249,67.882 327.367,67.981 327.298 C 68.081 327.228,67.008 326.052,65.597 324.685 L 63.031 322.200 65.415 324.812 M328.993 330.100 L 324.600 334.600 329.100 330.207 C 331.575 327.791,333.600 325.766,333.600 325.707 C 333.600 325.418,333.074 325.920,328.993 330.100 M72.443 332.100 C 72.540 332.155,73.785 333.280,75.210 334.600 L 77.800 337.000 75.413 334.500 C 74.099 333.125,72.854 332.000,72.646 332.000 C 72.437 332.000,72.346 332.045,72.443 332.100 M78.022 337.100 C 78.034 337.265,78.619 337.838,79.322 338.374 L 80.600 339.349 79.425 338.074 C 78.203 336.749,77.985 336.597,78.022 337.100 M87.600 344.933 C 87.600 345.043,88.320 345.703,89.200 346.400 C 90.080 347.097,90.800 347.577,90.800 347.467 C 90.800 347.357,90.080 346.697,89.200 346.000 C 88.320 345.303,87.600 344.823,87.600 344.933 M91.200 347.762 C 91.200 347.872,92.010 348.519,93.000 349.200 C 93.990 349.881,94.800 350.348,94.800 350.238 C 94.800 350.128,93.990 349.481,93.000 348.800 C 92.010 348.119,91.200 347.652,91.200 347.762 M101.200 354.767 C 102.163 355.552,102.800 355.808,102.800 355.410 C 102.800 355.306,102.215 354.935,101.500 354.586 L 100.200 353.952 101.200 354.767 M112.000 361.164 C 112.550 361.614,113.180 361.983,113.400 361.985 C 113.828 361.988,113.105 361.434,111.800 360.760 C 111.269 360.485,111.336 360.621,112.000 361.164 M118.800 364.596 C 118.800 364.870,121.249 366.084,121.432 365.901 C 121.519 365.814,120.962 365.444,120.195 365.078 C 119.428 364.712,118.800 364.495,118.800 364.596 M171.700 381.476 C 172.085 381.576,172.715 381.576,173.100 381.476 C 173.485 381.375,173.170 381.293,172.400 381.293 C 171.630 381.293,171.315 381.375,171.700 381.476 M178.100 382.276 C 178.485 382.376,179.115 382.376,179.500 382.276 C 179.885 382.175,179.570 382.093,178.800 382.093 C 178.030 382.093,177.715 382.175,178.100 382.276 M220.500 382.276 C 220.885 382.376,221.515 382.376,221.900 382.276 C 222.285 382.175,221.970 382.093,221.200 382.093 C 220.430 382.093,220.115 382.175,220.500 382.276 M186.505 383.087 C 187.114 383.179,188.014 383.177,188.505 383.082 C 188.997 382.987,188.500 382.911,187.400 382.914 C 186.300 382.917,185.897 382.995,186.505 383.087 M211.500 383.082 C 211.995 383.178,212.805 383.178,213.300 383.082 C 213.795 382.987,213.390 382.909,212.400 382.909 C 211.410 382.909,211.005 382.987,211.500 383.082 M191.091 383.489 C 191.801 383.577,193.061 383.579,193.891 383.492 C 194.721 383.405,194.140 383.333,192.600 383.331 C 191.060 383.329,190.381 383.400,191.091 383.489 M205.700 383.491 C 206.525 383.578,207.875 383.578,208.700 383.491 C 209.525 383.405,208.850 383.334,207.200 383.334 C 205.550 383.334,204.875 383.405,205.700 383.491 " stroke="none" fill="#848c94" fill-rule="evenodd"></path><path id="path6" d="M199.300 167.076 C 199.685 167.176,200.315 167.176,200.700 167.076 C 201.085 166.975,200.770 166.893,200.000 166.893 C 199.230 166.893,198.915 166.975,199.300 167.076 M194.500 167.476 C 194.885 167.576,195.515 167.576,195.900 167.476 C 196.285 167.375,195.970 167.293,195.200 167.293 C 194.430 167.293,194.115 167.375,194.500 167.476 M204.100 167.476 C 204.485 167.576,205.115 167.576,205.500 167.476 C 205.885 167.375,205.570 167.293,204.800 167.293 C 204.030 167.293,203.715 167.375,204.100 167.476 M167.293 195.200 C 167.293 195.970,167.375 196.285,167.476 195.900 C 167.576 195.515,167.576 194.885,167.476 194.500 C 167.375 194.115,167.293 194.430,167.293 195.200 M232.514 196.200 C 232.517 197.300,232.595 197.703,232.687 197.095 C 232.779 196.486,232.777 195.586,232.682 195.095 C 232.587 194.603,232.511 195.100,232.514 196.200 M166.893 200.000 C 166.893 200.770,166.975 201.085,167.076 200.700 C 167.176 200.315,167.176 199.685,167.076 199.300 C 166.975 198.915,166.893 199.230,166.893 200.000 M16.967 199.742 C 16.852 200.040,16.815 201.435,16.885 202.842 L 17.011 205.400 17.205 202.299 C 17.400 199.196,17.356 198.727,16.967 199.742 M381.888 199.486 C 382.218 199.720,382.418 201.569,382.506 205.216 L 382.637 210.600 382.619 205.033 C 382.603 200.434,382.496 199.437,382.000 199.302 C 381.569 199.185,381.537 199.236,381.888 199.486 M378.400 200.000 L 377.400 200.320 378.476 200.360 C 379.068 200.382,379.664 200.220,379.800 200.000 C 380.081 199.545,379.820 199.545,378.400 200.000 M374.200 200.800 L 373.000 201.105 374.276 201.153 C 374.978 201.179,375.664 201.020,375.800 200.800 C 376.074 200.357,375.940 200.357,374.200 200.800 M369.400 201.600 L 367.800 201.886 369.476 201.943 C 370.398 201.974,371.264 201.820,371.400 201.600 C 371.536 201.380,371.502 201.226,371.324 201.257 C 371.146 201.288,370.280 201.442,369.400 201.600 M232.514 203.800 C 232.517 204.900,232.595 205.303,232.687 204.695 C 232.779 204.086,232.777 203.186,232.682 202.695 C 232.587 202.203,232.511 202.700,232.514 203.800 M364.200 202.400 L 362.200 202.674 364.200 202.731 C 365.300 202.762,366.470 202.613,366.800 202.400 C 367.496 201.950,367.479 201.950,364.200 202.400 M358.800 203.200 L 356.600 203.470 358.600 203.507 C 359.700 203.527,360.960 203.389,361.400 203.200 C 362.302 202.812,361.962 202.812,358.800 203.200 M167.293 204.800 C 167.293 205.570,167.375 205.885,167.476 205.500 C 167.576 205.115,167.576 204.485,167.476 204.100 C 167.375 203.715,167.293 204.030,167.293 204.800 M352.400 204.051 C 350.750 204.232,348.050 204.550,346.400 204.757 L 343.400 205.133 346.200 204.985 C 350.631 204.749,355.979 204.154,356.269 203.865 C 356.414 203.719,356.278 203.627,355.967 203.660 C 355.655 203.694,354.050 203.869,352.400 204.051 M77.505 207.083 C 78.002 207.179,78.722 207.175,79.105 207.075 C 79.487 206.975,79.080 206.896,78.200 206.901 C 77.320 206.905,77.007 206.987,77.505 207.083 M321.700 207.076 C 322.085 207.176,322.715 207.176,323.100 207.076 C 323.485 206.975,323.170 206.893,322.400 206.893 C 321.630 206.893,321.315 206.975,321.700 207.076 M90.900 207.887 C 91.505 207.978,92.495 207.978,93.100 207.887 C 93.705 207.795,93.210 207.720,92.000 207.720 C 90.790 207.720,90.295 207.795,90.900 207.887 M307.705 207.887 C 308.314 207.979,309.214 207.977,309.705 207.882 C 310.197 207.787,309.700 207.711,308.600 207.714 C 307.500 207.717,307.097 207.795,307.705 207.887 M106.500 208.287 C 107.105 208.378,108.095 208.378,108.700 208.287 C 109.305 208.195,108.810 208.120,107.600 208.120 C 106.390 208.120,105.895 208.195,106.500 208.287 M291.700 208.287 C 292.305 208.378,293.295 208.378,293.900 208.287 C 294.505 208.195,294.010 208.120,292.800 208.120 C 291.590 208.120,291.095 208.195,291.700 208.287 M113.100 208.689 C 113.815 208.778,114.985 208.778,115.700 208.689 C 116.415 208.601,115.830 208.528,114.400 208.528 C 112.970 208.528,112.385 208.601,113.100 208.689 M284.900 208.694 C 285.945 208.776,287.655 208.776,288.700 208.694 C 289.745 208.612,288.890 208.544,286.800 208.544 C 284.710 208.544,283.855 208.612,284.900 208.694 M17.314 213.400 C 17.317 214.500,17.395 214.903,17.487 214.295 C 17.579 213.686,17.577 212.786,17.482 212.295 C 17.387 211.803,17.311 212.300,17.314 213.400 M381.856 214.884 C 381.721 215.388,381.632 216.880,381.659 218.200 L 381.706 220.600 382.041 217.421 C 382.380 214.210,382.306 213.204,381.856 214.884 M175.201 221.800 C 175.751 222.460,176.245 223.075,176.300 223.167 C 176.355 223.258,176.488 223.245,176.596 223.138 C 176.704 223.030,176.209 222.415,175.497 221.771 L 174.203 220.600 175.201 221.800 M381.049 222.215 C 380.912 222.573,380.825 223.796,380.855 224.933 L 380.909 227.000 381.209 224.400 C 381.520 221.703,381.476 221.103,381.049 222.215 M221.978 224.296 C 220.788 225.588,220.762 225.656,221.782 224.796 C 223.739 223.146,224.073 222.800,223.707 222.800 C 223.514 222.800,222.737 223.473,221.978 224.296 M380.267 228.267 C 380.120 228.413,380.023 229.268,380.050 230.167 L 380.100 231.800 380.399 230.000 C 380.716 228.096,380.696 227.838,380.267 228.267 M379.418 233.459 C 379.192 234.951,378.735 237.326,378.196 239.799 C 378.052 240.459,378.062 240.871,378.218 240.715 C 378.685 240.248,380.129 232.396,379.807 232.074 C 379.722 231.988,379.547 232.612,379.418 233.459 M195.305 232.687 C 195.914 232.779,196.814 232.777,197.305 232.682 C 197.797 232.587,197.300 232.511,196.200 232.514 C 195.100 232.517,194.697 232.595,195.305 232.687 M202.905 232.687 C 203.514 232.779,204.414 232.777,204.905 232.682 C 205.397 232.587,204.900 232.511,203.800 232.514 C 202.700 232.517,202.297 232.595,202.905 232.687 M377.660 242.067 C 377.627 242.654,377.496 243.464,377.370 243.867 C 377.152 244.560,377.165 244.561,377.595 243.890 C 377.846 243.499,377.977 242.689,377.886 242.090 L 377.720 241.000 377.660 242.067 M376.854 245.267 C 376.825 245.634,376.684 246.264,376.541 246.667 C 376.341 247.233,376.395 247.296,376.775 246.946 C 377.046 246.697,377.187 246.067,377.088 245.546 C 376.990 245.026,376.884 244.900,376.854 245.267 M365.823 276.206 C 364.960 278.272,365.074 278.506,366.047 276.662 C 366.493 275.816,366.765 275.032,366.652 274.919 C 366.539 274.806,366.166 275.385,365.823 276.206 M361.985 284.100 C 360.842 286.355,360.098 288.020,360.332 287.800 C 361.065 287.109,364.608 280.000,364.219 280.000 C 364.133 280.000,363.128 281.845,361.985 284.100 M189.105 283.083 C 189.602 283.179,190.322 283.175,190.705 283.075 C 191.087 282.975,190.680 282.896,189.800 282.901 C 188.920 282.905,188.607 282.987,189.105 283.083 M209.505 283.083 C 210.002 283.179,210.722 283.175,211.105 283.075 C 211.487 282.975,211.080 282.896,210.200 282.901 C 209.320 282.905,209.007 282.987,209.505 283.083 M353.269 298.839 C 352.510 300.054,352.966 300.216,353.755 299.012 C 354.120 298.456,354.278 298.000,354.105 298.000 C 353.933 298.000,353.557 298.378,353.269 298.839 M47.804 301.400 C 48.671 302.976,50.673 305.403,50.005 304.068 C 49.748 303.556,49.285 302.836,48.977 302.468 C 48.668 302.101,48.129 301.440,47.779 301.000 C 47.238 300.319,47.241 300.378,47.804 301.400 M350.069 303.639 C 349.310 304.854,349.766 305.016,350.555 303.812 C 350.920 303.256,351.078 302.800,350.905 302.800 C 350.733 302.800,350.357 303.178,350.069 303.639 M52.273 307.900 C 53.325 309.385,54.604 311.050,55.116 311.600 C 55.627 312.150,56.344 313.095,56.709 313.700 C 57.074 314.305,57.529 314.800,57.720 314.800 C 57.911 314.800,57.737 314.380,57.333 313.866 C 54.848 310.700,51.471 306.125,51.307 305.700 C 51.201 305.425,50.945 305.200,50.737 305.200 C 50.529 305.200,51.221 306.415,52.273 307.900 M348.265 306.398 C 347.884 307.043,347.353 307.802,347.086 308.085 C 346.006 309.229,344.380 311.600,344.680 311.593 C 345.084 311.585,349.362 305.628,349.130 305.396 C 349.035 305.302,348.646 305.753,348.265 306.398 M343.544 312.700 C 342.275 314.232,341.819 314.942,342.281 314.665 C 342.793 314.358,344.569 312.000,344.289 312.000 C 344.198 312.000,343.863 312.315,343.544 312.700 M58.451 315.897 C 58.753 316.281,59.518 317.136,60.152 317.797 L 61.304 319.000 60.458 317.800 C 59.056 315.811,58.527 315.200,58.207 315.200 C 58.039 315.200,58.149 315.514,58.451 315.897 M341.000 315.720 C 339.750 317.251,339.536 317.598,339.851 317.578 C 340.043 317.566,340.619 317.026,341.130 316.378 C 341.642 315.730,341.912 315.207,341.730 315.215 C 341.549 315.224,341.220 315.451,341.000 315.720 M63.209 321.500 C 66.525 325.140,78.883 337.250,79.081 337.053 C 79.201 336.932,78.332 335.983,77.150 334.942 C 74.572 332.675,66.935 325.004,64.350 322.087 C 63.333 320.939,62.352 320.000,62.172 320.000 C 61.991 320.000,62.458 320.675,63.209 321.500 M335.000 322.660 C 332.591 325.427,326.971 331.114,323.651 334.144 C 322.029 335.624,320.792 336.925,320.902 337.035 C 321.012 337.145,324.146 334.212,327.866 330.517 C 335.580 322.858,337.516 320.795,336.978 320.811 C 336.770 320.817,335.880 321.649,335.000 322.660 M82.800 340.330 C 83.789 341.212,84.676 341.857,84.770 341.763 C 84.950 341.584,84.210 340.949,82.200 339.556 C 81.540 339.099,81.810 339.447,82.800 340.330 M316.254 340.655 C 315.623 341.197,315.173 341.706,315.254 341.786 C 315.334 341.866,315.916 341.488,316.546 340.945 C 317.177 340.403,317.627 339.894,317.546 339.814 C 317.466 339.734,316.884 340.112,316.254 340.655 M85.215 342.251 C 85.224 342.443,85.899 343.078,86.715 343.662 C 87.532 344.245,89.533 345.730,91.163 346.962 C 92.792 348.193,94.296 349.200,94.505 349.200 C 94.713 349.200,93.470 348.192,91.742 346.960 C 90.014 345.729,88.150 344.325,87.600 343.840 C 85.935 342.374,85.199 341.884,85.215 342.251 M313.185 343.232 L 311.800 344.463 313.088 343.613 C 314.230 342.859,315.093 342.000,314.708 342.000 C 314.632 342.000,313.947 342.554,313.185 343.232 M310.400 345.256 C 309.850 345.689,309.112 346.279,308.759 346.567 C 308.407 346.855,307.420 347.565,306.567 348.145 C 305.713 348.725,305.168 349.200,305.356 349.200 C 305.544 349.200,306.882 348.345,308.328 347.300 C 309.774 346.255,311.142 345.275,311.367 345.122 C 311.592 344.969,311.692 344.759,311.588 344.656 C 311.485 344.553,310.950 344.823,310.400 345.256 M96.000 350.420 C 97.728 351.807,98.666 352.134,97.200 350.839 C 96.430 350.158,95.620 349.605,95.400 349.610 C 95.180 349.614,95.450 349.979,96.000 350.420 M303.429 350.209 C 303.005 350.529,302.738 350.871,302.835 350.969 C 302.932 351.066,303.459 350.802,304.006 350.382 C 304.553 349.961,304.820 349.620,304.600 349.622 C 304.380 349.624,303.853 349.888,303.429 350.209 M298.629 353.409 C 298.205 353.729,297.938 354.071,298.035 354.169 C 298.132 354.266,298.659 354.002,299.206 353.582 C 299.753 353.161,300.020 352.820,299.800 352.822 C 299.580 352.824,299.053 353.088,298.629 353.409 M295.611 355.420 C 294.847 355.959,294.376 356.400,294.564 356.400 C 294.967 356.400,297.600 354.811,297.600 354.567 C 297.600 354.200,296.934 354.486,295.611 355.420 M283.248 362.403 C 278.850 364.690,277.392 365.562,278.993 364.947 C 281.464 363.999,288.894 359.924,287.980 360.019 C 287.881 360.029,285.752 361.102,283.248 362.403 M113.200 360.962 C 113.200 361.051,114.955 361.983,117.100 363.032 C 119.245 364.081,121.135 365.008,121.300 365.093 C 121.465 365.178,121.600 365.171,121.600 365.078 C 121.600 364.902,113.729 360.800,113.392 360.800 C 113.286 360.800,113.200 360.873,113.200 360.962 M123.338 366.047 C 124.184 366.493,124.968 366.765,125.081 366.652 C 125.276 366.457,122.580 365.180,122.051 365.218 C 121.913 365.227,122.492 365.600,123.338 366.047 M276.053 365.853 C 275.313 366.176,274.801 366.534,274.916 366.649 C 275.031 366.764,275.816 366.493,276.662 366.047 C 278.435 365.111,278.041 364.986,276.053 365.853 M153.000 376.800 C 153.136 377.020,153.642 377.187,154.124 377.172 C 154.969 377.145,154.971 377.131,154.200 376.800 C 153.099 376.327,152.708 376.327,153.000 376.800 M245.800 376.800 L 245.000 377.144 245.800 377.166 C 246.240 377.178,246.870 377.013,247.200 376.800 C 247.995 376.286,246.996 376.286,245.800 376.800 M156.000 377.605 C 156.330 377.816,157.125 377.991,157.767 377.994 C 159.314 378.002,158.977 377.771,157.000 377.468 C 155.910 377.301,155.591 377.345,156.000 377.605 M241.200 377.807 C 236.285 379.046,235.543 379.200,234.494 379.206 C 233.892 379.209,233.130 379.384,232.800 379.595 C 232.139 380.016,234.201 379.821,237.000 379.196 C 237.880 379.000,239.590 378.630,240.800 378.374 C 243.235 377.859,244.960 377.255,244.000 377.253 C 243.670 377.253,242.410 377.502,241.200 377.807 M159.800 378.388 C 160.548 378.700,162.158 379.043,167.300 379.984 C 171.174 380.694,172.143 380.810,171.865 380.532 C 171.713 380.380,170.646 380.102,169.494 379.914 C 164.324 379.073,162.898 378.811,161.400 378.428 C 159.497 377.942,158.681 377.921,159.800 378.388 M228.231 380.350 C 228.032 380.672,231.590 380.479,231.967 380.147 C 232.058 380.066,231.304 380.000,230.290 380.000 C 229.277 380.000,228.350 380.158,228.231 380.350 M172.833 380.944 C 172.925 381.023,174.260 381.199,175.800 381.335 C 177.653 381.498,178.397 381.451,178.000 381.197 C 177.457 380.849,172.440 380.604,172.833 380.944 M222.200 381.211 C 221.695 381.435,222.434 381.478,224.200 381.328 C 225.740 381.198,227.075 381.025,227.167 380.945 C 227.525 380.633,222.953 380.877,222.200 381.211 M179.633 381.745 C 179.725 381.824,181.150 381.998,182.799 382.130 C 184.753 382.286,185.590 382.238,185.199 381.991 C 184.654 381.647,179.244 381.407,179.633 381.745 M214.801 381.991 C 214.410 382.238,215.247 382.286,217.201 382.130 C 218.850 381.998,220.275 381.824,220.367 381.745 C 220.756 381.407,215.346 381.647,214.801 381.991 M194.500 382.699 C 197.525 382.767,202.475 382.767,205.500 382.699 C 208.525 382.631,206.050 382.575,200.000 382.575 C 193.950 382.575,191.475 382.631,194.500 382.699 " stroke="none" fill="#cdd2d3" fill-rule="evenodd"></path><path id="path7" d="M382.914 201.400 C 382.917 202.500,382.995 202.903,383.087 202.295 C 383.179 201.686,383.177 200.786,383.082 200.295 C 382.987 199.803,382.911 200.300,382.914 201.400 M95.300 207.876 C 95.685 207.976,96.315 207.976,96.700 207.876 C 97.085 207.775,96.770 207.693,96.000 207.693 C 95.230 207.693,94.915 207.775,95.300 207.876 M112.105 208.287 C 112.714 208.379,113.614 208.377,114.105 208.282 C 114.597 208.187,114.100 208.111,113.000 208.114 C 111.900 208.117,111.497 208.195,112.105 208.287 M288.305 208.283 C 288.802 208.379,289.522 208.375,289.905 208.275 C 290.287 208.175,289.880 208.096,289.000 208.101 C 288.120 208.105,287.807 208.187,288.305 208.283 M382.501 213.000 C 382.505 213.880,382.587 214.193,382.683 213.695 C 382.779 213.198,382.775 212.478,382.675 212.095 C 382.575 211.713,382.496 212.120,382.501 213.000 M142.400 260.125 C 142.400 260.194,142.985 260.779,143.700 261.425 L 145.000 262.600 143.825 261.300 C 142.730 260.088,142.400 259.816,142.400 260.125 M185.700 382.676 C 186.085 382.776,186.715 382.776,187.100 382.676 C 187.485 382.575,187.170 382.493,186.400 382.493 C 185.630 382.493,185.315 382.575,185.700 382.676 M212.500 382.676 C 212.885 382.776,213.515 382.776,213.900 382.676 C 214.285 382.575,213.970 382.493,213.200 382.493 C 212.430 382.493,212.115 382.575,212.500 382.676 M197.516 383.097 C 198.899 383.175,201.059 383.174,202.316 383.095 C 203.572 383.016,202.440 382.952,199.800 382.953 C 197.160 382.953,196.132 383.018,197.516 383.097 " stroke="none" fill="#c4c4c4" fill-rule="evenodd"></path><path id="path8" d="" stroke="none" fill="#c4c4cc" fill-rule="evenodd"></path></g></svg>